<?xml version="1.0" encoding="utf-8" ?>
<svg baseProfile="full" height="400cm" version="1.1" viewBox="0 0 140 400" width="140cm" xmlns="http://www.w3.org/2000/svg" xmlns:ev="http://www.w3.org/2001/xml-events" xmlns:xlink="http://www.w3.org/1999/xlink"><defs /><polygon fill="none" points="27.644999999999996,289.812 20.016999999999996,303.479 14.805999999999997,318.238 12.162999999999998,333.665 12.162999999999998,349.31600000000003 14.806000000000001,364.743 20.017000000000003,379.502 27.645000000000003,393.169 27.645000000000003,393.169 17.529000000000003,400.0 17.529000000000003,400.0 8.892000000000003,384.527 2.9929999999999986,367.817 0.0,350.351 0.0,332.63 2.9929999999999986,315.164 8.891999999999996,298.455 17.528999999999996,282.981 17.528999999999996,282.981 27.644999999999996,289.812" stroke="black" stroke-width="0.5" /><polygon fill="none" points="121.008,343.781 107.51899999999999,336.252 92.95100000000001,331.109 77.725,328.5 62.277,328.5 47.05,331.109 32.48299999999999,336.252 18.994000000000003,343.781 18.994000000000003,343.781 12.163,333.665 12.163,333.665 27.459000000000007,325.127 43.977000000000004,319.296 61.24199999999999,316.337 78.759,316.337 96.02499999999999,319.296 112.54299999999999,325.127 127.839,333.66499999999996 127.839,333.66499999999996 121.008,343.781" stroke="black" stroke-width="0.5" /><polygon fill="none" points="91.682,384.38 91.682,350.065 91.682,350.065 94.822,349.63 97.726,348.35699999999997 100.174,346.343 101.982,343.738 103.013,340.741 103.191,337.575 102.501,334.481 102.501,334.481 108.91,337.029 108.91,337.029 109.433,341.573 109.986,345.558 110.733,348.938 111.83500000000001,351.665 113.45700000000001,353.694 115.759,354.978 118.906,355.46999999999997 118.906,355.46999999999997 118.906,384.38 118.906,384.38 91.682,384.38" stroke="black" stroke-width="0.5" /><polygon fill="none" points="123.651,328.35400000000004 110.16199999999999,320.82500000000005 95.59400000000001,315.682 80.368,313.07300000000004 64.92,313.07300000000004 49.693,315.682 35.12599999999999,320.82500000000005 21.637000000000004,328.35400000000004 21.637000000000004,328.35400000000004 14.806000000000001,318.23800000000006 14.806000000000001,318.23800000000006 30.102000000000007,309.70000000000005 46.620000000000005,303.869 63.88499999999999,300.91 81.402,300.91 98.66799999999999,303.869 115.18599999999999,309.70000000000005 130.482,318.238 130.482,318.238 123.651,328.35400000000004" stroke="black" stroke-width="0.5" /><polygon fill="none" points="47.51,332.402 80.211,332.402 80.211,332.402 80.705,335.80899999999997 82.14599999999999,338.93399999999997 84.416,341.522 87.328,343.358 90.64099999999999,344.28999999999996 94.083,344.24399999999997 97.37,343.221 97.37,343.221 94.822,349.63 94.822,349.63 90.46799999999999,349.679 86.64099999999999,349.811 83.368,350.186 80.678,350.96299999999997 78.598,352.299 77.15599999999999,354.353 76.381,357.284 76.381,357.284 47.51,357.284 47.51,357.284 47.51,332.402" stroke="black" stroke-width="0.5" /><polygon fill="none" points="83.07400000000001,330.02 83.07400000000001,332.02 83.07400000000001,332.02 60.812000000000005,332.02 60.812000000000005,332.02 64.98400000000001,330.546 68.82600000000001,329.468 72.33800000000001,328.786 75.518,328.5 78.367,328.61 80.88600000000001,329.117 83.07400000000001,330.02" stroke="black" stroke-width="0.5" /><polygon fill="none" points="86.068,301.71 85.731,298.72299999999996 84.738,295.885 83.139,293.34 81.013,291.214 78.46799999999999,289.615 75.63,288.62199999999996 72.643,288.286 72.643,288.286 69.656,288.62199999999996 66.818,289.615 64.273,291.214 62.147,293.34 60.548,295.885 59.555,298.723 59.219,301.71 59.219,301.71 34.658,301.71 34.658,301.71 40.05499999999999,287.233 50.714999999999996,276.05 64.91799999999999,269.967 80.368,269.967 94.571,276.05 105.231,287.233 110.628,301.71 110.628,301.71 86.068,301.71" stroke="black" stroke-width="0.5" /><polygon fill="none" points="7.811999999999995,242.0 21.478999999999996,249.628 36.23799999999999,254.839 51.665,257.482 67.316,257.482 82.743,254.839 97.502,249.628 111.169,242.0 111.169,242.0 118.0,252.11599999999999 118.0,252.11599999999999 102.527,260.753 85.817,266.652 68.351,269.645 50.629999999999995,269.645 33.163999999999994,266.652 16.454999999999995,260.753 0.9809999999999945,252.11599999999999 0.9809999999999945,252.11599999999999 7.811999999999995,242.0" stroke="black" stroke-width="0.5" /><polygon fill="none" points="27.645,393.169 27.645,365.945 27.645,365.945 56.555,365.945 56.555,365.945 57.047,369.092 58.331,371.395 60.36,373.016 63.087,374.11899999999997 66.467,374.865 70.452,375.418 74.996,375.941 74.996,375.941 77.544,382.35 77.544,382.35 74.45,381.65999999999997 71.284,381.83799999999997 68.287,382.86899999999997 65.682,384.677 63.668000000000006,387.125 62.394999999999996,390.029 61.96000000000001,393.169 61.96000000000001,393.169 27.645,393.169" stroke="black" stroke-width="0.5" /><polygon fill="none" points="107.95700000000001,261.844 132.839,261.844 132.839,261.844 132.839,290.715 132.839,290.715 129.90800000000002,291.49 127.85400000000001,292.932 126.51800000000001,295.012 125.74200000000002,297.702 125.36700000000002,300.975 125.23400000000001,304.802 125.186,309.156 125.186,309.156 118.77600000000001,311.704 118.77600000000001,311.704 119.79900000000002,308.417 119.84600000000002,304.975 118.91300000000001,301.662 117.07700000000001,298.75 114.49000000000001,296.48 111.364,295.039 107.95700000000001,294.545 107.95700000000001,294.545 107.95700000000001,261.844" stroke="black" stroke-width="0.5" /><polygon fill="none" points="46.065,214.02 46.402,217.007 47.394999999999996,219.845 48.994,222.39000000000001 51.120000000000005,224.51600000000002 53.665000000000006,226.115 56.503,227.108 59.489999999999995,227.44400000000002 59.489999999999995,227.44400000000002 62.477000000000004,227.108 65.315,226.115 67.86,224.51600000000002 69.986,222.39000000000001 71.585,219.845 72.578,217.007 72.914,214.02 72.914,214.02 97.475,214.02 97.475,214.02 95.752,232.699 85.394,248.339 68.869,257.216 50.111000000000004,257.216 33.585,248.339 23.227999999999998,232.699 21.505,214.02 21.505,214.02 46.065,214.02" stroke="black" stroke-width="0.5" /><polygon fill="none" points="129.25900000000001,242.526 127.071,243.429 124.55199999999999,243.935 121.703,244.04600000000002 118.523,243.76000000000002 115.011,243.078 111.169,242.0 106.997,240.526 106.997,240.526 129.25900000000001,240.526 129.25900000000001,240.526 129.25900000000001,242.526" stroke="black" stroke-width="0.5" /><polygon fill="none" points="96.21000000000001,227.73000000000002 97.277,226.038 97.277,226.038 100.331,228.64600000000002 102.52000000000001,232.014 103.66100000000002,235.864 103.66100000000002,239.881 102.52000000000001,243.732 100.33100000000002,247.09900000000002 97.27700000000002,249.70700000000002 97.27700000000002,249.70700000000002 96.21000000000001,248.01500000000001 96.21000000000001,248.01500000000001 98.82800000000002,245.78 100.70300000000002,242.894 101.68100000000001,239.59400000000002 101.68100000000001,236.151 100.703,232.851 98.828,229.965 96.21000000000001,227.73000000000002" stroke="black" stroke-width="0.5" /><polygon fill="none" points="58.247,364.878 60.482,367.496 63.368,369.371 66.668,370.349 70.111,370.349 73.411,369.371 76.297,367.496 78.532,364.878 78.532,364.878 80.224,365.945 80.224,365.945 77.616,368.99899999999997 74.248,371.188 70.398,372.329 66.381,372.329 62.53,371.188 59.163,368.99899999999997 56.555,365.945 56.555,365.945 58.247,364.878" stroke="black" stroke-width="0.5" /></svg>