<?xml version="1.0" encoding="utf-8" ?>
<svg baseProfile="full" height="400cm" version="1.1" viewBox="0 0 140 400" width="140cm" xmlns="http://www.w3.org/2000/svg" xmlns:ev="http://www.w3.org/2001/xml-events" xmlns:xlink="http://www.w3.org/1999/xlink"><defs /><polygon fill="none" points="49.899,400.0 15.584000000000001,400.0 15.584000000000001,400.0 15.149000000000003,396.86 13.876,393.956 11.862,391.50800000000004 9.257,389.70000000000005 6.26,388.66900000000004 3.0939999999999994,388.49100000000004 0.0,389.18100000000004 0.0,389.18100000000004 2.5479999999999987,382.77200000000005 2.5479999999999987,382.77200000000005 7.091999999999999,382.249 11.076999999999998,381.696 14.456999999999999,380.949 17.184,379.84700000000004 19.213,378.225 20.497,375.923 20.989,372.776 20.989,372.776 49.898999999999994,372.776 49.898999999999994,372.776 49.899,400.0" stroke="black" stroke-width="0.5" /><polygon fill="none" points="1.1350000000000096,358.73900000000003 4.12200000000001,358.402 6.96000000000001,357.409 9.50500000000001,355.81 11.631000000000009,353.68399999999997 13.23000000000001,351.139 14.223000000000008,348.301 14.559000000000006,345.314 14.559000000000006,345.314 14.223000000000008,342.327 13.230000000000006,339.48900000000003 11.631000000000006,336.944 9.505000000000006,334.818 6.960000000000005,333.219 4.122000000000004,332.226 1.1350000000000044,331.89 1.1350000000000044,331.89 1.135,307.329 1.135,307.329 15.612000000000002,312.726 26.795000000000005,323.38599999999997 32.87800000000001,337.589 32.87800000000001,353.039 26.795000000000012,367.242 15.612000000000013,377.902 1.135000000000014,383.299 1.135000000000014,383.299 1.1350000000000096,358.73900000000003" stroke="black" stroke-width="0.5" /><polygon fill="none" points="57.940999999999995,263.93100000000004 50.41199999999999,277.42 45.269,291.988 42.66,307.21400000000006 42.66,322.66200000000003 45.269,337.889 50.412000000000006,352.456 57.941,365.94500000000005 57.941,365.94500000000005 47.825,372.776 47.825,372.776 39.287000000000006,357.48 33.456,340.962 30.497,323.697 30.497,306.18 33.456,288.91400000000004 39.28699999999999,272.396 47.824999999999996,257.1 47.824999999999996,257.1 57.940999999999995,263.93100000000004" stroke="black" stroke-width="0.5" /><polygon fill="none" points="23.397000000000002,305.329 23.397000000000002,307.329 23.397000000000002,307.329 1.135,307.329 1.135,307.329 5.307,305.855 9.149,304.77700000000004 12.661,304.095 15.841,303.809 18.69,303.91900000000004 21.209000000000003,304.42600000000004 23.397000000000002,305.329" stroke="black" stroke-width="0.5" /><polygon fill="none" points="11.479000000000001,287.847 13.714,290.465 16.6,292.34 19.9,293.318 23.343000000000004,293.318 26.643,292.34 29.529000000000003,290.465 31.764000000000003,287.847 31.764000000000003,287.847 33.456,288.914 33.456,288.914 30.848,291.96799999999996 27.480000000000004,294.157 23.630000000000003,295.298 19.613,295.298 15.762,294.157 12.395000000000001,291.96799999999996 9.787,288.914 9.787,288.914 11.479000000000001,287.847" stroke="black" stroke-width="0.5" /><polygon fill="none" points="45.26900000000002,337.889 52.798000000000016,324.4 57.94100000000001,309.832 60.55000000000001,294.606 60.550000000000004,279.158 57.941,263.93100000000004 52.798,249.364 45.269,235.875 45.269,235.875 55.385,229.044 55.385,229.044 63.923,244.34000000000003 69.754,260.858 72.71300000000001,278.123 72.71300000000001,295.64 69.75400000000002,312.906 63.923000000000016,329.424 55.38500000000002,344.72 55.38500000000002,344.72 45.26900000000002,337.889" stroke="black" stroke-width="0.5" /><polygon fill="none" points="114.88900000000001,244.52599999999998 101.22200000000001,236.898 86.463,231.68699999999998 71.036,229.04399999999998 55.385,229.044 39.958000000000006,231.687 25.199000000000005,236.898 11.532000000000004,244.526 11.532000000000004,244.526 4.7010000000000005,234.41 4.7010000000000005,234.41 20.174,225.773 36.88400000000001,219.874 54.35,216.881 72.071,216.881 89.537,219.874 106.24600000000001,225.773 121.72,234.41 121.72,234.41 114.88900000000001,244.52599999999998" stroke="black" stroke-width="0.5" /><polygon fill="none" points="101.309,394.16499999999996 100.972,391.178 99.979,388.34 98.38,385.795 96.25399999999999,383.669 93.709,382.07 90.87100000000001,381.077 87.884,380.741 87.884,380.741 84.89699999999999,381.077 82.059,382.07 79.514,383.669 77.388,385.795 75.789,388.34 74.79599999999999,391.178 74.46000000000001,394.165 74.46000000000001,394.165 49.899,394.165 49.899,394.165 51.622,375.486 61.97999999999999,359.846 78.505,350.969 97.26299999999999,350.969 113.78899999999999,359.846 124.146,375.486 125.869,394.16499999999996 125.869,394.16499999999996 101.309,394.16499999999996" stroke="black" stroke-width="0.5" /><polygon fill="none" points="69.754,240.573 70.821,238.881 70.821,238.881 73.875,241.489 76.06400000000001,244.857 77.20500000000001,248.707 77.20500000000001,252.724 76.06400000000001,256.575 73.87500000000001,259.942 70.82100000000001,262.55 70.82100000000001,262.55 69.754,260.858 69.754,260.858 72.37200000000001,258.623 74.24700000000001,255.737 75.22500000000001,252.437 75.22500000000001,248.994 74.24700000000001,245.694 72.372,242.808 69.754,240.573" stroke="black" stroke-width="0.5" /><polygon fill="none" points="4.7010000000000005,234.41 5.604,236.59799999999998 6.11,239.117 6.221,241.966 5.9350000000000005,245.146 5.253,248.658 4.175,252.5 2.701,256.672 2.701,256.672 2.701,234.41 2.701,234.41 4.7010000000000005,234.41" stroke="black" stroke-width="0.5" /><polygon fill="none" points="77.205,252.72400000000002 104.429,252.72400000000002 104.429,252.72400000000002 104.429,281.634 104.429,281.634 101.28200000000001,282.12600000000003 98.979,283.41 97.358,285.439 96.255,288.166 95.509,291.54600000000005 94.956,295.531 94.433,300.07500000000005 94.433,300.07500000000005 88.024,302.62300000000005 88.024,302.62300000000005 88.714,299.529 88.536,296.363 87.50500000000001,293.36600000000004 85.697,290.761 83.24900000000001,288.747 80.345,287.47400000000005 77.205,287.03900000000004 77.205,287.03900000000004 77.205,252.72400000000002" stroke="black" stroke-width="0.5" /><polygon fill="none" points="129.08100000000002,256.282 121.453,269.949 116.242,284.70799999999997 113.599,300.135 113.599,315.786 116.242,331.21299999999997 121.453,345.972 129.08100000000002,359.639 129.08100000000002,359.639 118.965,366.47 118.965,366.47 110.328,350.997 104.429,334.287 101.436,316.821 101.436,299.1 104.429,281.634 110.328,264.925 118.965,249.451 118.965,249.451 129.08100000000002,256.282" stroke="black" stroke-width="0.5" /><polygon fill="none" points="115.06,291.61 139.942,291.61 139.942,291.61 139.942,320.481 139.942,320.481 137.01100000000002,321.25600000000003 134.957,322.69800000000004 133.621,324.778 132.845,327.468 132.47,330.741 132.33700000000002,334.568 132.28900000000002,338.922 132.28900000000002,338.922 125.879,341.47 125.879,341.47 126.90200000000002,338.183 126.94900000000001,334.741 126.016,331.428 124.18,328.516 121.593,326.24600000000004 118.46700000000001,324.805 115.06,324.31100000000004 115.06,324.31100000000004 115.06,291.61" stroke="black" stroke-width="0.5" /><polygon fill="none" points="69.754,345.607 69.754,312.906 69.754,312.906 73.161,312.41200000000003 76.286,310.971 78.87400000000001,308.701 80.71000000000001,305.789 81.64200000000001,302.476 81.596,299.034 80.57300000000001,295.747 80.57300000000001,295.747 86.982,298.295 86.982,298.295 87.031,302.649 87.16300000000001,306.476 87.53800000000001,309.749 88.315,312.439 89.65100000000001,314.519 91.70500000000001,315.961 94.63600000000001,316.736 94.63600000000001,316.736 94.63600000000001,345.607 94.63600000000001,345.607 69.754,345.607" stroke="black" stroke-width="0.5" /></svg>