<?xml version="1.0" encoding="utf-8" ?>
<svg baseProfile="full" height="400cm" version="1.1" viewBox="0 0 140 400" width="140cm" xmlns="http://www.w3.org/2000/svg" xmlns:ev="http://www.w3.org/2001/xml-events" xmlns:xlink="http://www.w3.org/1999/xlink"><defs /><polygon fill="none" points="27.644999999999996,289.812 20.016999999999996,303.479 14.805999999999997,318.238 12.162999999999998,333.665 12.162999999999998,349.31600000000003 14.806000000000001,364.743 20.017000000000003,379.502 27.645000000000003,393.169 27.645000000000003,393.169 17.529000000000003,400.0 17.529000000000003,400.0 8.892000000000003,384.527 2.9929999999999986,367.817 0.0,350.351 0.0,332.63 2.9929999999999986,315.164 8.891999999999996,298.455 17.528999999999996,282.981 17.528999999999996,282.981 27.644999999999996,289.812" stroke="black" stroke-width="0.5" /><polygon fill="none" points="39.138000000000005,337.42900000000003 40.055,340.053 41.536,342.409 43.5,344.37300000000005 45.855999999999995,345.85400000000004 48.480000000000004,346.771 52.244,347.19500000000005 52.244,378.861 41.613,378.861 24.644,369.74600000000004 14.009,353.68600000000004 12.163,333.665 38.713,333.665" stroke="black" stroke-width="0.5" /><polygon fill="none" points="123.651,328.35400000000004 110.16199999999999,320.82500000000005 95.59400000000001,315.682 80.368,313.07300000000004 64.92,313.07300000000004 49.693,315.682 35.12599999999999,320.82500000000005 21.637000000000004,328.35400000000004 21.637000000000004,328.35400000000004 14.806000000000001,318.23800000000006 14.806000000000001,318.23800000000006 30.102000000000007,309.70000000000005 46.620000000000005,303.869 63.88499999999999,300.91 81.402,300.91 98.66799999999999,303.869 115.18599999999999,309.70000000000005 130.482,318.238 130.482,318.238 123.651,328.35400000000004" stroke="black" stroke-width="0.5" /><polygon fill="none" points="74.19500000000001,317.54900000000004 74.19500000000001,350.25000000000006 74.19500000000001,350.25000000000006 70.78800000000001,350.744 67.66300000000001,352.18500000000006 65.075,354.45500000000004 63.23900000000001,357.367 62.30700000000001,360.68000000000006 62.35300000000001,364.122 63.37600000000001,367.40900000000005 63.37600000000001,367.40900000000005 56.96700000000001,364.86100000000005 56.96700000000001,364.86100000000005 56.918000000000006,360.50700000000006 56.786000000000016,356.68000000000006 56.411000000000016,353.40700000000004 55.63400000000001,350.71700000000004 54.298,348.63700000000006 52.24400000000001,347.19500000000005 49.313,346.42 49.313,346.42 49.313,317.54900000000004 49.313,317.54900000000004 74.19500000000001,317.54900000000004" stroke="black" stroke-width="0.5" /><polygon fill="none" points="39.727000000000004,327.828 39.727000000000004,329.828 39.727000000000004,329.828 17.465,329.828 17.465,329.828 21.637,328.354 25.479,327.276 28.991,326.594 32.171,326.308 35.019999999999996,326.418 37.539,326.925 39.727000000000004,327.828" stroke="black" stroke-width="0.5" /><polygon fill="none" points="98.257,393.338 97.91999999999999,390.351 96.92699999999999,387.51300000000003 95.328,384.968 93.202,382.84200000000004 90.657,381.24300000000005 87.819,380.25 84.832,379.91400000000004 84.832,379.91400000000004 81.845,380.25 79.007,381.24300000000005 76.46199999999999,382.84200000000004 74.336,384.968 72.737,387.51300000000003 71.744,390.35100000000006 71.408,393.338 71.408,393.338 46.847,393.338 46.847,393.338 52.24399999999999,378.86100000000005 62.903999999999996,367.67800000000005 77.107,361.595 92.55699999999999,361.595 106.75999999999999,367.67800000000005 117.41999999999999,378.86100000000005 122.81700000000001,393.338 122.81700000000001,393.338 98.257,393.338" stroke="black" stroke-width="0.5" /><polygon fill="none" points="24.36,272.865 38.027,280.493 52.786,285.704 68.21300000000001,288.34700000000004 83.864,288.34700000000004 99.291,285.704 114.05,280.493 127.717,272.865 127.717,272.865 134.548,282.981 134.548,282.981 119.075,291.618 102.365,297.517 84.899,300.51 67.178,300.51 49.712,297.517 33.003,291.618 17.529,282.981 17.529,282.981 24.36,272.865" stroke="black" stroke-width="0.5" /><polygon fill="none" points="75.84700000000001,320.825 110.162,320.825 110.162,320.825 110.59700000000001,323.965 111.87,326.86899999999997 113.88400000000001,329.317 116.489,331.125 119.48600000000002,332.156 122.65200000000002,332.334 125.74600000000001,331.644 125.74600000000001,331.644 123.19800000000001,338.053 123.19800000000001,338.053 118.65400000000001,338.57599999999996 114.66900000000001,339.129 111.28900000000002,339.876 108.56200000000001,340.978 106.53300000000002,342.59999999999997 105.24900000000001,344.902 104.757,348.049 104.757,348.049 75.84700000000001,348.049 75.84700000000001,348.049 75.84700000000001,320.825" stroke="black" stroke-width="0.5" /><polygon fill="none" points="25.031,259.31 38.519999999999996,266.839 53.087999999999994,271.982 68.31400000000001,274.591 83.762,274.591 98.989,271.982 113.55600000000001,266.839 127.045,259.31 127.045,259.31 133.876,269.426 133.876,269.426 118.58,277.964 102.062,283.795 84.79700000000001,286.754 67.28,286.754 50.013999999999996,283.795 33.496,277.964 18.2,269.426 18.2,269.426 25.031,259.31" stroke="black" stroke-width="0.5" /><polygon fill="none" points="58.881,272.975 58.881,245.751 58.881,245.751 87.791,245.751 87.791,245.751 88.283,248.898 89.56700000000001,251.201 91.596,252.822 94.32300000000001,253.925 97.703,254.671 101.688,255.224 106.232,255.747 106.232,255.747 108.78,262.156 108.78,262.156 105.686,261.466 102.52000000000001,261.644 99.523,262.675 96.918,264.483 94.904,266.931 93.631,269.835 93.196,272.975 93.196,272.975 58.881,272.975" stroke="black" stroke-width="0.5" /><polygon fill="none" points="65.681,235.483 55.04600000000001,251.543 38.077,260.658 27.446,260.658 27.446,228.99200000000002 31.21,228.568 33.834,227.651 36.19,226.17000000000002 38.154,224.20600000000002 39.635000000000005,221.85000000000002 40.552,219.22600000000003 40.976,215.46200000000002 67.527,215.46200000000002" stroke="black" stroke-width="0.5" /><polygon fill="none" points="96.898,218.502 121.78,218.502 121.78,218.502 121.78,247.37300000000002 121.78,247.37300000000002 118.849,248.148 116.795,249.59 115.459,251.67000000000002 114.683,254.36 114.308,257.63300000000004 114.17500000000001,261.46000000000004 114.12700000000001,265.814 114.12700000000001,265.814 107.717,268.362 107.717,268.362 108.74000000000001,265.075 108.787,261.63300000000004 107.854,258.32 106.018,255.40800000000002 103.431,253.138 100.305,251.697 96.898,251.20300000000003 96.898,251.20300000000003 96.898,218.502" stroke="black" stroke-width="0.5" /><polygon fill="none" points="39.635000000000005,221.85 37.447,222.753 34.928,223.259 32.079,223.37 28.899,223.084 25.387,222.402 21.545,221.32399999999998 17.373,219.85 17.373,219.85 39.635000000000005,219.85 39.635000000000005,219.85 39.635000000000005,221.85" stroke="black" stroke-width="0.5" /><polygon fill="none" points="88.283,228.613 89.35,226.921 89.35,226.921 92.404,229.529 94.593,232.897 95.73400000000001,236.74699999999999 95.73400000000001,240.76399999999998 94.593,244.61499999999998 92.40400000000001,247.982 89.35000000000001,250.59 89.35000000000001,250.59 88.283,248.898 88.283,248.898 90.90100000000001,246.66299999999998 92.77600000000001,243.777 93.754,240.477 93.754,237.034 92.77600000000001,233.73399999999998 90.901,230.84799999999998 88.283,228.613" stroke="black" stroke-width="0.5" /><polygon fill="none" points="111.289,339.87600000000003 113.52400000000002,342.494 116.41000000000001,344.369 119.71000000000001,345.34700000000004 123.153,345.34700000000004 126.453,344.369 129.339,342.494 131.574,339.87600000000003 131.574,339.87600000000003 133.26600000000002,340.94300000000004 133.26600000000002,340.94300000000004 130.65800000000002,343.997 127.29,346.18600000000004 123.44000000000001,347.32700000000006 119.423,347.32700000000006 115.572,346.18600000000004 112.20500000000001,343.997 109.59700000000001,340.94300000000004 109.59700000000001,340.94300000000004 111.289,339.87600000000003" stroke="black" stroke-width="0.5" /></svg>