<?xml version="1.0" encoding="utf-8" ?>
<svg baseProfile="full" height="400cm" version="1.1" viewBox="0 0 140 400" width="140cm" xmlns="http://www.w3.org/2000/svg" xmlns:ev="http://www.w3.org/2001/xml-events" xmlns:xlink="http://www.w3.org/1999/xlink"><defs /><polygon fill="none" points="27.644999999999996,289.812 20.016999999999996,303.479 14.805999999999997,318.238 12.162999999999998,333.665 12.162999999999998,349.31600000000003 14.806000000000001,364.743 20.017000000000003,379.502 27.645000000000003,393.169 27.645000000000003,393.169 17.529000000000003,400.0 17.529000000000003,400.0 8.892000000000003,384.527 2.9929999999999986,367.817 0.0,350.351 0.0,332.63 2.9929999999999986,315.164 8.891999999999996,298.455 17.528999999999996,282.981 17.528999999999996,282.981 27.644999999999996,289.812" stroke="black" stroke-width="0.5" /><polygon fill="none" points="13.154,355.103 13.154,327.879 13.154,327.879 42.064,327.879 42.064,327.879 42.556,331.026 43.84,333.329 45.869,334.95000000000005 48.596000000000004,336.053 51.976,336.79900000000004 55.961,337.35200000000003 60.504999999999995,337.875 60.504999999999995,337.875 63.053,344.284 63.053,344.284 59.959,343.594 56.793000000000006,343.772 53.79600000000001,344.803 51.191,346.611 49.17700000000001,349.059 47.903999999999996,351.963 47.46900000000001,355.103 47.46900000000001,355.103 13.154,355.103" stroke="black" stroke-width="0.5" /><polygon fill="none" points="62.307,302.704 51.672,318.764 34.703,327.879 24.072,327.879 24.072,296.21299999999997 27.836,295.789 30.46,294.872 32.816,293.391 34.78,291.427 36.260999999999996,289.07099999999997 37.178,286.447 37.602000000000004,282.683 64.153,282.683" stroke="black" stroke-width="0.5" /><polygon fill="none" points="20.287,355.103 52.988,355.103 52.988,355.103 53.482,358.51 54.923,361.635 57.193000000000005,364.223 60.105000000000004,366.059 63.418000000000006,366.991 66.86000000000001,366.945 70.147,365.922 70.147,365.922 67.59900000000002,372.331 67.59900000000002,372.331 63.245000000000005,372.38 59.418000000000006,372.512 56.14500000000001,372.887 53.45500000000001,373.664 51.375,375.0 49.93300000000001,377.05400000000003 49.158,379.985 49.158,379.985 20.287000000000003,379.985 20.287000000000003,379.985 20.287,355.103" stroke="black" stroke-width="0.5" /><polygon fill="none" points="44.513000000000005,381.505 44.513000000000005,383.505 44.513000000000005,383.505 22.251,383.505 22.251,383.505 26.423000000000002,382.031 30.265,380.95300000000003 33.777,380.271 36.957,379.985 39.806,380.095 42.325,380.60200000000003 44.513000000000005,381.505" stroke="black" stroke-width="0.5" /><polygon fill="none" points="82.44200000000001,316.797 83.359,319.421 84.84,321.77700000000004 86.804,323.74100000000004 89.16,325.22200000000004 91.784,326.139 95.548,326.563 95.548,358.22900000000004 84.917,358.22900000000004 67.948,349.11400000000003 57.313,333.05400000000003 55.467,313.033 82.017,313.033" stroke="black" stroke-width="0.5" /><polygon fill="none" points="21.335,255.038 35.002,262.666 49.760999999999996,267.877 65.188,270.52000000000004 80.83900000000001,270.52000000000004 96.266,267.877 111.025,262.666 124.69200000000001,255.038 124.69200000000001,255.038 131.523,265.154 131.523,265.154 116.05000000000001,273.791 99.34,279.69 81.87400000000001,282.683 64.153,282.683 46.687,279.69 29.978,273.791 14.504,265.154 14.504,265.154 21.335,255.038" stroke="black" stroke-width="0.5" /><polygon fill="none" points="102.952,397.991 102.615,395.004 101.622,392.166 100.023,389.621 97.89699999999999,387.495 95.352,385.896 92.51400000000001,384.903 89.527,384.567 89.527,384.567 86.53999999999999,384.903 83.702,385.896 81.157,387.495 79.031,389.621 77.432,392.166 76.439,395.004 76.10300000000001,397.991 76.10300000000001,397.991 51.542,397.991 51.542,397.991 56.93899999999999,383.514 67.59899999999999,372.331 81.80199999999999,366.248 97.252,366.248 111.455,372.331 122.115,383.514 127.512,397.991 127.512,397.991 102.952,397.991" stroke="black" stroke-width="0.5" /><polygon fill="none" points="63.865,285.809 98.18,285.809 98.18,285.809 98.61500000000001,288.949 99.888,291.853 101.902,294.30100000000004 104.507,296.10900000000004 107.504,297.14000000000004 110.67,297.31800000000004 113.76400000000001,296.62800000000004 113.76400000000001,296.62800000000004 111.21600000000001,303.03700000000003 111.21600000000001,303.03700000000003 106.672,303.56 102.68700000000001,304.11300000000006 99.307,304.86 96.58000000000001,305.96200000000005 94.551,307.584 93.267,309.886 92.775,313.033 92.775,313.033 63.865,313.033 63.865,313.033 63.865,285.809" stroke="black" stroke-width="0.5" /><polygon fill="none" points="7.053,257.02 8.12,255.328 8.12,255.328 11.174000000000001,257.936 13.363000000000001,261.304 14.504000000000001,265.154 14.504000000000003,269.171 13.363000000000003,273.022 11.174000000000003,276.389 8.120000000000005,278.997 8.120000000000005,278.997 7.0530000000000035,277.305 7.0530000000000035,277.305 9.671000000000003,275.07 11.546000000000003,272.184 12.524000000000003,268.884 12.524000000000001,265.441 11.546000000000003,262.141 9.671,259.255 7.053,257.02" stroke="black" stroke-width="0.5" /><polygon fill="none" points="69.97800000000001,355.32 67.79,356.223 65.271,356.729 62.422,356.84 59.242000000000004,356.554 55.730000000000004,355.872 51.888000000000005,354.794 47.716,353.32 47.716,353.32 69.97800000000001,353.32 69.97800000000001,353.32 69.97800000000001,355.32" stroke="black" stroke-width="0.5" /><polygon fill="none" points="102.687,304.113 127.569,304.113 127.569,304.113 127.569,332.984 127.569,332.984 124.638,333.759 122.584,335.201 121.248,337.281 120.47200000000001,339.971 120.09700000000001,343.244 119.964,347.071 119.916,351.425 119.916,351.425 113.506,353.973 113.506,353.973 114.52900000000001,350.686 114.57600000000001,347.244 113.643,343.931 111.807,341.019 109.22,338.749 106.094,337.308 102.687,336.814 102.687,336.814 102.687,304.113" stroke="black" stroke-width="0.5" /><polygon fill="none" points="22.006,241.483 35.495000000000005,249.012 50.063,254.155 65.289,256.764 80.737,256.764 95.964,254.155 110.531,249.012 124.02,241.483 124.02,241.483 130.851,251.599 130.851,251.599 115.55499999999999,260.137 99.03699999999999,265.968 81.772,268.927 64.255,268.927 46.989000000000004,265.968 30.471000000000004,260.137 15.175,251.599 15.175,251.599 22.006,241.483" stroke="black" stroke-width="0.5" /><polygon fill="none" points="64.632,358.229 66.867,360.847 69.753,362.722 73.053,363.7 76.49600000000001,363.7 79.796,362.722 82.682,360.847 84.917,358.229 84.917,358.229 86.60900000000001,359.296 86.60900000000001,359.296 84.001,362.34999999999997 80.63300000000001,364.539 76.783,365.68 72.766,365.68 68.915,364.539 65.548,362.34999999999997 62.940000000000005,359.296 62.940000000000005,359.296 64.632,358.229" stroke="black" stroke-width="0.5" /></svg>