<?xml version="1.0" encoding="utf-8" ?>
<svg baseProfile="full" height="400cm" version="1.1" viewBox="0 0 140 400" width="140cm" xmlns="http://www.w3.org/2000/svg" xmlns:ev="http://www.w3.org/2001/xml-events" xmlns:xlink="http://www.w3.org/1999/xlink"><defs /><polygon fill="none" points="27.644999999999996,289.812 20.016999999999996,303.479 14.805999999999997,318.238 12.162999999999998,333.665 12.162999999999998,349.31600000000003 14.806000000000001,364.743 20.017000000000003,379.502 27.645000000000003,393.169 27.645000000000003,393.169 17.529000000000003,400.0 17.529000000000003,400.0 8.892000000000003,384.527 2.9929999999999986,367.817 0.0,350.351 0.0,332.63 2.9929999999999986,315.164 8.891999999999996,298.455 17.528999999999996,282.981 17.528999999999996,282.981 27.644999999999996,289.812" stroke="black" stroke-width="0.5" /><polygon fill="none" points="25.098,330.74600000000004 26.259,333.394 28.1,335.63100000000003 30.472,337.27700000000004 33.213,338.22 36.097,338.382 39.644999999999996,337.591 40.427,338.50800000000004 37.435,346.03200000000004 32.32,346.62 32.32,346.62100000000004 28.365000000000002,347.17 25.118000000000002,347.88800000000003 22.6,348.90500000000003 20.84,350.312 19.740000000000002,352.286 19.142,356.103 13.326,356.103 13.326,326.879 24.562,326.879" stroke="black" stroke-width="0.5" /><polygon fill="none" points="20.017,379.502 20.017,352.278 20.017,352.278 48.927,352.278 48.927,352.278 49.419,355.425 50.703,357.728 52.732,359.34900000000005 55.459,360.452 58.839,361.19800000000004 62.824,361.75100000000003 67.368,362.274 67.368,362.274 69.916,368.683 69.916,368.683 66.822,367.993 63.656000000000006,368.171 60.659000000000006,369.202 58.054,371.01 56.040000000000006,373.458 54.766999999999996,376.362 54.33200000000001,379.502 54.33200000000001,379.502 20.017,379.502" stroke="black" stroke-width="0.5" /><polygon fill="none" points="64.494,308.219 53.859,324.279 36.89,333.394 26.259,333.394 26.259,301.72799999999995 30.023,301.304 32.647,300.387 35.003,298.906 36.967,296.942 38.448,294.58599999999996 39.365,291.962 39.789,288.198 66.34,288.198" stroke="black" stroke-width="0.5" /><polygon fill="none" points="48.927,327.396 81.628,327.396 81.628,327.396 82.122,330.803 83.563,333.928 85.833,336.516 88.745,338.35200000000003 92.058,339.284 95.5,339.238 98.787,338.21500000000003 98.787,338.21500000000003 96.239,344.624 96.239,344.624 91.885,344.673 88.058,344.805 84.78500000000001,345.18 82.09500000000001,345.957 80.015,347.293 78.57300000000001,349.34700000000004 77.798,352.278 77.798,352.278 48.92700000000001,352.278 48.92700000000001,352.278 48.927,327.396" stroke="black" stroke-width="0.5" /><polygon fill="none" points="43.102000000000004,348.312 43.102000000000004,350.312 43.102000000000004,350.312 20.84,350.312 20.84,350.312 25.012,348.838 28.854,347.76000000000005 32.366,347.07800000000003 35.546,346.79200000000003 38.394999999999996,346.90200000000004 40.914,347.40900000000005 43.102000000000004,348.312" stroke="black" stroke-width="0.5" /><polygon fill="none" points="93.315,291.962 94.232,294.58599999999996 95.71300000000001,296.942 97.677,298.906 100.033,300.387 102.65700000000001,301.304 106.421,301.72799999999995 106.421,333.394 95.79,333.394 78.821,324.279 68.186,308.219 66.34,288.198 92.89,288.198" stroke="black" stroke-width="0.5" /><polygon fill="none" points="23.522,260.553 37.189,268.181 51.94799999999999,273.392 67.375,276.035 83.02600000000001,276.035 98.453,273.392 113.212,268.181 126.879,260.553 126.879,260.553 133.71,270.669 133.71,270.669 118.23700000000001,279.306 101.527,285.205 84.061,288.198 66.34,288.198 48.873999999999995,285.205 32.165,279.306 16.691,270.669 16.691,270.669 23.522,260.553" stroke="black" stroke-width="0.5" /><polygon fill="none" points="105.269,394.343 104.93199999999999,391.356 103.939,388.51800000000003 102.34,385.973 100.214,383.84700000000004 97.669,382.24800000000005 94.831,381.255 91.844,380.91900000000004 91.844,380.91900000000004 88.857,381.255 86.019,382.24800000000005 83.47399999999999,383.84700000000004 81.348,385.973 79.749,388.51800000000003 78.756,391.35600000000005 78.42,394.343 78.42,394.343 53.859,394.343 53.859,394.343 59.25599999999999,379.86600000000004 69.916,368.68300000000005 84.119,362.6 99.56899999999999,362.6 113.77199999999999,368.68300000000005 124.43199999999999,379.86600000000004 129.829,394.343 129.829,394.343 105.269,394.343" stroke="black" stroke-width="0.5" /><polygon fill="none" points="133.37,312.701 106.421,312.701 106.421,283.47700000000003 133.37,283.47700000000003" stroke="black" stroke-width="0.5" /><polygon fill="none" points="96.169,335.98 97.23599999999999,334.288 97.23599999999999,334.288 100.28999999999999,336.896 102.479,340.264 103.62,344.11400000000003 103.62,348.13100000000003 102.479,351.982 100.29,355.349 97.236,357.957 97.236,357.957 96.169,356.265 96.169,356.265 98.787,354.03000000000003 100.662,351.144 101.64,347.844 101.64,344.401 100.662,341.101 98.78699999999999,338.21500000000003 96.169,335.98" stroke="black" stroke-width="0.5" /><polygon fill="none" points="71.68100000000001,357.425 69.49300000000001,358.32800000000003 66.974,358.834 64.125,358.945 60.94500000000001,358.659 57.43300000000001,357.97700000000003 53.59100000000001,356.899 49.419000000000004,355.425 49.419000000000004,355.425 71.68100000000001,355.425 71.68100000000001,355.425 71.68100000000001,357.425" stroke="black" stroke-width="0.5" /><polygon fill="none" points="106.421,312.701 131.303,312.701 131.303,312.701 131.303,341.572 131.303,341.572 128.372,342.34700000000004 126.31800000000001,343.78900000000004 124.98200000000001,345.869 124.20600000000002,348.559 123.83100000000002,351.832 123.69800000000001,355.659 123.65,360.01300000000003 123.65,360.01300000000003 117.24000000000001,362.56100000000004 117.24000000000001,362.56100000000004 118.26300000000002,359.274 118.31000000000002,355.832 117.37700000000001,352.519 115.54100000000001,349.607 112.95400000000001,347.33700000000005 109.828,345.896 106.421,345.40200000000004 106.421,345.40200000000004 106.421,312.701" stroke="black" stroke-width="0.5" /><polygon fill="none" points="24.193,246.99800000000002 37.682,254.52700000000002 52.25,259.67 67.476,262.279 82.924,262.279 98.15100000000001,259.67 112.71800000000002,254.52700000000002 126.207,246.99800000000002 126.207,246.99800000000002 133.038,257.11400000000003 133.038,257.11400000000003 117.74199999999999,265.65200000000004 101.22399999999999,271.483 83.959,274.442 66.44200000000001,274.442 49.176,271.483 32.658,265.65200000000004 17.362000000000002,257.11400000000003 17.362000000000002,257.11400000000003 24.193,246.99800000000002" stroke="black" stroke-width="0.5" /><polygon fill="none" points="109.48899999999999,362.373 111.724,364.991 114.61,366.866 117.91,367.844 121.353,367.844 124.65299999999999,366.866 127.539,364.991 129.774,362.373 129.774,362.373 131.466,363.44 131.466,363.44 128.858,366.49399999999997 125.49,368.683 121.64,369.824 117.62299999999999,369.824 113.77199999999999,368.683 110.405,366.49399999999997 107.797,363.44 107.797,363.44 109.48899999999999,362.373" stroke="black" stroke-width="0.5" /></svg>