<?xml version="1.0" encoding="utf-8" ?>
<svg xmlns="http://www.w3.org/2000/svg" xmlns:ev="http://www.w3.org/2001/xml-events" xmlns:xlink="http://www.w3.org/1999/xlink" baseProfile="full" height="112.7153728049409cm" version="1.1" viewBox="-28.049999999999994 -137.5816992070187 120.89999999999999 112.7153728049409" width="120.89999999999999cm">
  <defs/>
  <path d="M -22.599999999999998,-90.1738264020778 L 22.599999999999998,-90.1738264020778 L 22.599999999999998,-94.8738264020778 L 8.327685482243485,-94.8738264020778 L -0.08902773177251788,-94.8738264020778 L -8.505740945788535,-94.8738264020778 L -22.599999999999998,-94.8738264020778 L -22.599999999999998,-90.1738264020778" fill="rgb(227,175,186)" stroke="rgb(51,51,51)" stroke-width="0.2"/>
  <path d="M -24.399999999999995,-27.866326402077796 L -21.89999985126077,-27.866326402077796 L -12.349999851260769,-46.97254266799502 L -2.7999998512607682,-27.866326402077796 L 2.2000001592662315,-27.866326402077796 L 11.750000159266232,-46.97254266799502 L 21.30000015926623,-27.866326402077796 L 23.800000000000008,-27.866326402077796 L 23.800000000000008,-61.58632640207779 Q 23.799992074969378,-73.36009542192807 22.300000000000008,-85.08632640207779 L -22.89999999999999,-85.08632640207779 Q -24.399992075713723,-73.36009540253653 -24.399999999999995,-61.58632640207779 L -24.399999999999995,-27.866326402077796" fill="rgb(227,175,186)" stroke="rgb(51,51,51)" stroke-width="0.2"/>
  <path d="M -15.299999999999995,-27.86632640207779 L -0.2999999999999954,-27.86632640207779 L -7.799999999999995,-47.86632640207779 L -15.299999999999995,-27.86632640207779" fill="rgb(227,175,186)" stroke="rgb(51,51,51)" stroke-width="0.2"/>
  <path d="M -0.2999999999999954,-27.86632640207779 L 14.700000000000005,-27.86632640207779 L 7.200000000000005,-47.86632640207779 L -0.2999999999999954,-27.86632640207779" fill="rgb(227,175,186)" stroke="rgb(51,51,51)" stroke-width="0.2"/>
  <path d="M 0.0,-96.83744293658091 L 8.450000131946313,-96.83744293658091 L 9.60000013194631,-109.62584002143873 L 10.75000013194631,-96.83744293658091 L 24.899999999999995,-96.83744293658091 L 26.049999999999994,-111.10410957800556 L 12.980283094114087,-112.95410957800557 L 26.049999999999994,-114.80410957800558 L 24.57632165660302,-119.08029588690516 L 0.0,-128.3841096032476 L 0.0,-96.83744293658091" fill="rgb(227,175,186)" stroke="rgb(51,51,51)" stroke-width="0.2"/>
  <path d="M 0.0,-96.83744293658091 L 0.0,-128.3841096032476 L -24.57632165660302,-119.08029588690516 L -26.049999999999994,-114.80410957800558 L -12.980283094114087,-112.95410957800557 L -26.049999999999994,-111.10410957800556 L -24.899999999999995,-96.83744293658091 L -10.75000013194631,-96.83744293658091 L -9.60000013194631,-109.62584002143873 L -8.450000131946314,-96.83744293658091 L 0.0,-96.83744293658091" fill="rgb(227,175,186)" stroke="rgb(51,51,51)" stroke-width="0.2"/>
  <path d="M 48.44999999999999,-26.86632640207779 L 55.94999999999999,-46.86632640207779 L 63.44999999999999,-26.86632640207779 L 48.44999999999999,-26.86632640207779" fill="rgb(227,175,186)" stroke="rgb(51,51,51)" stroke-width="0.2"/>
  <path d="M 63.44999999999999,-26.86632640207779 L 70.94999999999999,-46.86632640207779 L 78.44999999999999,-26.86632640207779 L 63.44999999999999,-26.86632640207779" fill="rgb(227,175,186)" stroke="rgb(51,51,51)" stroke-width="0.2"/>
  <path d="M 63.44999999999999,-103.28297679856844 L 63.44999999999999,-135.5816992070187 L 87.29999999999998,-119.72815819981682 L 87.29999999999998,-115.17687653424134 L 86.58333333333331,-100.91020986757468 Q 82.48712525397383,-101.7883731211734 78.37014437006381,-102.35809134866957 L 78.73407861413472,-113.18631760638297 L 76.59059667506847,-102.56612847439769 Q 74.32727457424592,-102.81379023584267 72.05937117148875,-102.97588808242975 L 71.9322963212659,-115.01337336839788 L 70.27136443304492,-103.0903492012602 Q 66.8658390952355,-103.28297683024628 63.44999999999999,-103.28297679856844" fill="rgb(227,175,186)" stroke="rgb(51,51,51)" stroke-width="0.2"/>
  <path d="M 63.44999999999999,-103.28297679856844 Q 60.03416090476448,-103.28297683024628 56.628635566955055,-103.0903492012602 L 54.967703678734075,-115.01337336839788 L 54.84062882851123,-102.97588808242975 Q 52.57272542575405,-102.81379023584267 50.3094033249315,-102.56612847439769 L 48.16592138586527,-113.18631760638297 L 48.529855629936165,-102.35809134866957 Q 44.412874746026155,-101.7883731211734 40.316666666666656,-100.91020986757468 L 39.59999999999999,-115.17687653424134 L 39.59999999999999,-119.72815819981682 L 63.44999999999999,-135.5816992070187 L 63.44999999999999,-103.28297679856844" fill="rgb(227,175,186)" stroke="rgb(51,51,51)" stroke-width="0.2"/>
  <path d="M 36.05,-26.86632640207779 L 36.05,-60.58632640207778 Q 36.05000019608358,-72.96707018025452 38.17840905742009,-85.26132640207778 L 46.35340930677816,-85.26132640207778 L 47.783807042423135,-66.28014658316606 L 49.21420477806811,-85.26132640207778 L 53.764204727178836,-85.26132640207778 L 55.19460246282381,-64.15975152440902 L 56.62500019846878,-85.26132640207778 L 70.27500017026267,-85.26132640207778 L 71.70539790590765,-64.15975152440902 L 73.13579564155262,-85.26132640207778 L 77.68579551356444,-85.26132640207778 L 79.11619324920942,-66.28014658316606 L 80.54659098485439,-85.26132640207778 L 88.7215909425799,-85.26132640207778 Q 90.8499998020315,-72.96707023758998 90.85,-60.58632640207778 L 90.85,-26.86632640207779 L 88.3499998150576,-26.86632640207779 L 77.1499998150576,-45.05450937894494 L 65.94999981505761,-26.86632640207779 L 60.94999979381815,-26.86632640207779 L 49.74999979381815,-45.05450937894494 L 38.549999793818145,-26.86632640207779 L 36.05,-26.86632640207779" fill="rgb(227,175,186)" stroke="rgb(51,51,51)" stroke-width="0.2"/>
  <path d="M 43.89999999999999,-90.1738264020778 L 43.89999999999999,-94.8738264020778 L 52.20886143139935,-94.8738264020778 L 56.74092145665201,-94.8738264020778 L 63.539027731772514,-94.8738264020778 L 70.33713400689302,-94.8738264020778 L 74.86919403214567,-94.8738264020778 L 82.99999999999999,-94.8738264020778 L 82.99999999999999,-90.1738264020778 L 74.8250000422745,-90.1738264020778 L 70.27500017026267,-90.1738264020778 L 56.62500019846878,-90.1738264020778 L 52.075000249358055,-90.1738264020778 L 43.89999999999999,-90.1738264020778" fill="rgb(227,175,186)" stroke="rgb(51,51,51)" stroke-width="0.2"/>
</svg>
