<?xml version="1.0" encoding="utf-8" ?>
<svg baseProfile="full" height="400cm" version="1.1" viewBox="0 0 140 400" width="140cm" xmlns="http://www.w3.org/2000/svg" xmlns:ev="http://www.w3.org/2001/xml-events" xmlns:xlink="http://www.w3.org/1999/xlink"><defs /><polygon fill="none" points="0.0,350.101 27.224,350.101 27.224,350.101 27.224000000000004,379.011 27.224000000000004,379.011 24.077000000000005,379.503 21.774000000000004,380.787 20.153000000000006,382.81600000000003 19.050000000000004,385.543 18.304000000000006,388.923 17.751000000000005,392.908 17.22800000000001,397.452 17.22800000000001,397.452 10.819000000000006,400.0 10.819000000000006,400.0 11.509000000000007,396.906 11.331000000000007,393.74 10.300000000000008,390.743 8.492000000000008,388.13800000000003 6.044000000000008,386.124 3.140000000000004,384.851 3.552713678800501e-15,384.416 3.552713678800501e-15,384.416 0.0,350.101" stroke="black" stroke-width="0.5" /><polygon fill="none" points="39.918,374.728 37.3,376.963 35.425,379.849 34.447,383.149 34.447,386.592 35.425,389.892 37.3,392.778 39.918,395.013 39.918,395.013 38.851,396.705 38.851,396.705 35.797,394.097 33.608,390.729 32.467,386.879 32.467,382.862 33.608,379.011 35.797,375.644 38.851,373.036 38.851,373.036 39.918,374.728" stroke="black" stroke-width="0.5" /><polygon fill="none" points="30.717000000000002,374.103 29.025000000000002,373.036 29.025000000000002,373.036 31.633000000000003,369.98199999999997 35.001000000000005,367.793 38.851,366.652 42.868,366.652 46.719,367.793 50.086,369.98199999999997 52.694,373.036 52.694,373.036 51.002,374.103 51.002,374.103 48.767,371.485 45.881,369.61 42.581,368.632 39.138000000000005,368.632 35.838,369.61 32.952,371.485 30.717000000000002,374.103" stroke="black" stroke-width="0.5" /><polygon fill="none" points="67.54,324.234 64.553,324.57099999999997 61.715,325.56399999999996 59.17,327.16299999999995 57.044000000000004,329.289 55.44500000000001,331.834 54.452000000000005,334.67199999999997 54.11600000000001,337.659 54.11600000000001,337.659 54.452000000000005,340.64599999999996 55.44500000000001,343.484 57.044000000000004,346.029 59.17,348.155 61.715,349.75399999999996 64.553,350.74699999999996 67.54,351.08299999999997 67.54,351.08299999999997 67.54,375.644 67.54,375.644 53.063,370.24699999999996 41.88000000000001,359.587 35.797000000000004,345.38399999999996 35.797000000000004,329.93399999999997 41.88,315.731 53.063,305.07099999999997 67.54,299.674 67.54,299.674 67.54,324.234" stroke="black" stroke-width="0.5" /><polygon fill="none" points="24.784,397.452 26.971999999999998,396.54900000000004 29.491,396.043 32.339999999999996,395.932 35.519999999999996,396.218 39.032,396.90000000000003 42.873999999999995,397.978 47.046,399.452 47.046,399.452 24.784,399.452 24.784,399.452 24.784,397.452" stroke="black" stroke-width="0.5" /><polygon fill="none" points="64.19200000000001,377.01099999999997 64.19200000000001,379.01099999999997 64.19200000000001,379.01099999999997 41.93,379.01099999999997 41.93,379.01099999999997 46.102000000000004,377.537 49.944,376.459 53.456,375.777 56.635999999999996,375.491 59.485,375.601 62.004000000000005,376.108 64.19200000000001,377.01099999999997" stroke="black" stroke-width="0.5" /><polygon fill="none" points="96.906,399.452 64.205,399.452 64.205,399.452 63.711,396.045 62.269999999999996,392.92 60.0,390.332 57.088,388.496 53.775,387.564 50.333,387.61 47.046,388.633 47.046,388.633 49.594,382.224 49.594,382.224 53.948,382.175 57.775,382.043 61.048,381.668 63.738,380.891 65.818,379.555 67.26,377.501 68.035,374.57 68.035,374.57 96.90599999999999,374.57 96.90599999999999,374.57 96.906,399.452" stroke="black" stroke-width="0.5" /><polygon fill="none" points="68.03500000000001,350.01 71.022,349.673 73.86000000000001,348.68 76.405,347.081 78.531,344.95500000000004 80.13000000000001,342.41 81.123,339.572 81.459,336.58500000000004 81.459,336.58500000000004 81.123,333.598 80.13,330.76 78.531,328.21500000000003 76.405,326.089 73.86,324.49 71.022,323.497 68.035,323.161 68.035,323.161 68.035,298.6 68.035,298.6 86.714,300.32300000000004 102.354,310.68100000000004 111.231,327.206 111.231,345.964 102.35400000000001,362.49 86.71400000000001,372.84700000000004 68.03500000000001,374.57000000000005 68.03500000000001,374.57000000000005 68.03500000000001,350.01" stroke="black" stroke-width="0.5" /><polygon fill="none" points="110.283,308.716 96.794,301.187 82.22600000000001,296.044 67.0,293.435 51.55200000000001,293.435 36.325,296.044 21.757999999999992,301.187 8.269000000000004,308.716 8.269000000000004,308.716 1.438,298.6 1.438,298.6 16.734000000000005,290.062 33.25200000000001,284.231 50.516999999999996,281.272 68.034,281.272 85.3,284.231 101.818,290.062 117.114,298.59999999999997 117.114,298.59999999999997 110.283,308.716" stroke="black" stroke-width="0.5" /><polygon fill="none" points="109.373,399.321 109.373,365.00600000000003 109.373,365.00600000000003 112.513,364.571 115.417,363.298 117.86500000000001,361.28400000000005 119.673,358.67900000000003 120.70400000000001,355.682 120.882,352.516 120.19200000000001,349.422 120.19200000000001,349.422 126.601,351.97 126.601,351.97 127.12400000000001,356.514 127.677,360.499 128.424,363.879 129.526,366.60600000000005 131.148,368.63500000000005 133.45000000000002,369.91900000000004 136.597,370.411 136.597,370.411 136.597,399.321 136.597,399.321 109.373,399.321" stroke="black" stroke-width="0.5" /><polygon fill="none" points="111.94900000000001,341.88300000000004 119.47800000000001,328.394 124.62100000000001,313.826 127.23,298.6 127.23,283.15200000000004 124.62100000000001,267.925 119.478,253.358 111.949,239.86900000000003 111.949,239.86900000000003 122.065,233.038 122.065,233.038 130.603,248.334 136.434,264.85200000000003 139.393,282.117 139.393,299.634 136.43400000000003,316.9 130.603,333.418 122.06500000000001,348.714 122.06500000000001,348.714 111.94900000000001,341.88300000000004" stroke="black" stroke-width="0.5" /><polygon fill="none" points="7.811999999999995,224.0 21.478999999999996,231.628 36.23799999999999,236.839 51.665,239.482 67.316,239.482 82.743,236.839 97.502,231.628 111.169,224.0 111.169,224.0 118.0,234.11599999999999 118.0,234.11599999999999 102.527,242.753 85.817,248.652 68.351,251.645 50.629999999999995,251.645 33.163999999999994,248.652 16.454999999999995,242.753 0.9809999999999945,234.11599999999999 0.9809999999999945,234.11599999999999 7.811999999999995,224.0" stroke="black" stroke-width="0.5" /><polygon fill="none" points="7.811999999999995,210.0 21.478999999999996,217.628 36.23799999999999,222.839 51.665,225.482 67.316,225.482 82.743,222.839 97.502,217.628 111.169,210.0 111.169,210.0 118.0,220.11599999999999 118.0,220.11599999999999 102.527,228.753 85.817,234.652 68.351,237.645 50.629999999999995,237.645 33.163999999999994,234.652 16.454999999999995,228.753 0.9809999999999945,220.11599999999999 0.9809999999999945,220.11599999999999 7.811999999999995,210.0" stroke="black" stroke-width="0.5" /><polygon fill="none" points="50.63,276.52700000000004 50.63,251.645 50.63,251.645 79.501,251.645 79.501,251.645 80.276,254.57600000000002 81.718,256.63 83.798,257.966 86.488,258.742 89.761,259.117 93.588,259.25 97.94200000000001,259.298 97.94200000000001,259.298 100.49000000000001,265.708 100.49000000000001,265.708 97.203,264.685 93.761,264.63800000000003 90.44800000000001,265.571 87.536,267.407 85.266,269.994 83.825,273.12 83.331,276.527 83.331,276.527 50.63,276.52700000000004" stroke="black" stroke-width="0.5" /></svg>