<?xml version="1.0" encoding="utf-8" ?>
<svg baseProfile="full" height="400cm" version="1.1" viewBox="0 0 140 400" width="140cm" xmlns="http://www.w3.org/2000/svg" xmlns:ev="http://www.w3.org/2001/xml-events" xmlns:xlink="http://www.w3.org/1999/xlink"><defs /><polygon fill="none" points="21.977,400.0 19.742,397.382 16.856,395.507 13.556000000000001,394.529 10.113,394.529 6.812999999999999,395.507 3.9269999999999996,397.382 1.6920000000000002,400.0 1.6920000000000002,400.0 0.0,398.933 0.0,398.933 2.6080000000000005,395.87899999999996 5.975999999999999,393.69 9.825999999999999,392.549 13.842999999999998,392.549 17.694,393.69 21.061,395.87899999999996 23.669,398.933 23.669,398.933 21.977,400.0" stroke="black" stroke-width="0.5" /><polygon fill="none" points="57.984,398.933 23.669000000000004,398.933 23.669000000000004,398.933 23.234,395.793 21.961,392.889 19.947000000000003,390.44100000000003 17.342,388.63300000000004 14.345,387.60200000000003 11.179,387.42400000000004 8.085,388.11400000000003 8.085,388.11400000000003 10.633,381.70500000000004 10.633,381.70500000000004 15.177,381.182 19.162,380.629 22.542,379.882 25.269000000000002,378.78000000000003 27.298000000000002,377.158 28.582,374.856 29.074,371.709 29.074,371.709 57.983999999999995,371.709 57.983999999999995,371.709 57.984,398.933" stroke="black" stroke-width="0.5" /><polygon fill="none" points="0.28,377.882 2.468,376.97900000000004 4.986999999999999,376.473 7.835999999999999,376.362 11.016,376.648 14.528,377.33000000000004 18.37,378.408 22.542,379.882 22.542,379.882 0.2800000000000004,379.882 0.2800000000000004,379.882 0.28,377.882" stroke="black" stroke-width="0.5" /><polygon fill="none" points="66.487,346.04900000000004 66.824,349.03600000000006 67.81700000000001,351.874 69.416,354.41900000000004 71.542,356.545 74.087,358.14400000000006 76.925,359.13700000000006 79.912,359.473 79.912,359.473 82.899,359.13700000000006 85.737,358.14400000000006 88.28200000000001,356.545 90.408,354.41900000000004 92.007,351.874 93.0,349.03600000000006 93.336,346.04900000000004 93.336,346.04900000000004 117.89699999999999,346.04900000000004 117.89699999999999,346.04900000000004 112.5,360.526 101.84,371.70900000000006 87.637,377.79200000000003 72.187,377.79200000000003 57.983999999999995,371.70900000000006 47.324,360.526 41.927,346.04900000000004 41.927,346.04900000000004 66.487,346.04900000000004" stroke="black" stroke-width="0.5" /><polygon fill="none" points="131.591,353.686 117.924,346.058 103.16499999999999,340.847 87.738,338.204 72.08699999999999,338.204 56.660000000000004,340.847 41.901,346.058 28.234,353.686 28.234,353.686 21.403,343.57 21.403,343.57 36.876,334.933 53.586000000000006,329.034 71.05199999999999,326.041 88.773,326.041 106.239,329.034 122.94800000000001,334.933 138.422,343.57 138.422,343.57 131.591,353.686" stroke="black" stroke-width="0.5" /><polygon fill="none" points="130.919,339.382 117.42999999999999,331.853 102.86200000000001,326.71 87.636,324.101 72.188,324.101 56.961,326.71 42.39399999999999,331.853 28.905000000000005,339.382 28.905000000000005,339.382 22.074,329.266 22.074,329.266 37.370000000000005,320.728 53.888000000000005,314.897 71.15299999999999,311.938 88.67,311.938 105.93599999999999,314.897 122.454,320.728 137.75,329.26599999999996 137.75,329.26599999999996 130.919,339.382" stroke="black" stroke-width="0.5" /><polygon fill="none" points="134.541,371.709 134.541,396.591 134.541,396.591 105.67,396.591 105.67,396.591 104.89500000000001,393.66 103.453,391.606 101.373,390.27000000000004 98.68299999999999,389.494 95.41,389.119 91.583,388.986 87.229,388.938 87.229,388.938 84.681,382.528 84.681,382.528 87.968,383.551 91.41,383.598 94.723,382.665 97.63499999999999,380.829 99.905,378.242 101.346,375.116 101.84,371.709 101.84,371.709 134.541,371.709" stroke="black" stroke-width="0.5" /><polygon fill="none" points="31.084000000000003,271.701 31.421000000000003,274.68800000000005 32.414,277.526 34.013,280.071 36.139,282.197 38.684000000000005,283.79600000000005 41.522,284.78900000000004 44.509,285.125 44.509,285.125 47.496,284.78900000000004 50.334,283.79600000000005 52.879000000000005,282.197 55.005,280.071 56.604,277.526 57.597,274.68800000000005 57.933,271.701 57.933,271.701 82.494,271.701 82.494,271.701 80.771,290.38 70.413,306.02000000000004 53.888000000000005,314.89700000000005 35.13,314.89700000000005 18.604,306.02000000000004 8.247,290.38 6.524,271.701 6.524,271.701 31.084000000000003,271.701" stroke="black" stroke-width="0.5" /><polygon fill="none" points="130.67,279.561 130.67000000000002,306.78499999999997 130.67000000000002,306.78499999999997 101.76,306.78499999999997 101.76,306.78499999999997 101.268,303.638 99.98400000000001,301.335 97.95500000000001,299.714 95.22800000000001,298.611 91.848,297.865 87.863,297.312 83.319,296.789 83.319,296.789 80.771,290.38 80.771,290.38 83.865,291.07 87.031,290.892 90.028,289.861 92.633,288.053 94.647,285.60499999999996 95.92,282.70099999999996 96.355,279.561 96.355,279.561 130.67,279.561" stroke="black" stroke-width="0.5" /><polygon fill="none" points="117.13,278.233 84.429,278.233 84.429,278.233 83.935,274.826 82.494,271.701 80.22399999999999,269.113 77.312,267.277 73.999,266.345 70.557,266.391 67.27,267.414 67.27,267.414 69.818,261.005 69.818,261.005 74.172,260.956 77.999,260.824 81.27199999999999,260.449 83.96199999999999,259.672 86.042,258.336 87.484,256.282 88.259,253.351 88.259,253.351 117.13,253.351 117.13,253.351 117.13,278.233" stroke="black" stroke-width="0.5" /><polygon fill="none" points="130.619,260.88 117.13,253.351 102.56200000000001,248.208 87.336,245.599 71.888,245.59900000000002 56.661,248.208 42.093999999999994,253.351 28.605000000000004,260.88 28.605000000000004,260.88 21.774,250.764 21.774,250.764 37.07000000000001,242.226 53.58800000000001,236.395 70.853,233.436 88.37,233.436 105.636,236.395 122.154,242.226 137.45,250.764 137.45,250.764 130.619,260.88" stroke="black" stroke-width="0.5" /><polygon fill="none" points="134.477,359.459 136.169,360.526 136.169,360.526 133.561,363.58 130.193,365.769 126.343,366.91 122.326,366.91 118.475,365.769 115.108,363.58 112.5,360.526 112.5,360.526 114.192,359.459 114.192,359.459 116.427,362.077 119.313,363.952 122.613,364.93 126.056,364.93 129.356,363.952 132.242,362.077 134.477,359.459" stroke="black" stroke-width="0.5" /><polygon fill="none" points="131.29,247.325 117.623,239.697 102.864,234.486 87.43700000000001,231.84300000000002 71.786,231.84300000000002 56.35900000000001,234.48600000000002 41.60000000000001,239.697 27.933000000000003,247.32500000000002 27.933000000000003,247.32500000000002 21.102,237.209 21.102,237.209 36.575,228.572 53.28500000000001,222.673 70.751,219.68 88.47200000000001,219.68 105.93800000000002,222.673 122.647,228.572 138.121,237.209 138.121,237.209 131.29,247.325" stroke="black" stroke-width="0.5" /><polygon fill="none" points="136.061,364.153 138.061,364.153 138.061,364.153 138.061,386.415 138.061,386.415 136.587,382.243 135.509,378.401 134.827,374.889 134.541,371.709 134.651,368.86 135.158,366.341 136.061,364.153" stroke="black" stroke-width="0.5" /></svg>