<?xml version="1.0" encoding="utf-8" ?>
<svg baseProfile="full" height="400cm" version="1.1" viewBox="0 0 140 400" width="140cm" xmlns="http://www.w3.org/2000/svg" xmlns:ev="http://www.w3.org/2001/xml-events" xmlns:xlink="http://www.w3.org/1999/xlink"><defs /><polygon fill="none" points="6.831,372.556 20.32,380.085 34.888,385.228 50.114000000000004,387.837 65.562,387.837 80.789,385.228 95.35600000000001,380.085 108.845,372.556 108.845,372.556 115.676,382.67199999999997 115.676,382.67199999999997 100.38,391.21 83.862,397.041 66.59700000000001,400.0 49.08,400.0 31.814,397.041 15.296000000000001,391.21 0.0,382.67199999999997 0.0,382.67199999999997 6.831,372.556" stroke="black" stroke-width="0.5" /><polygon fill="none" points="43.403,361.805 76.10399999999998,361.805 76.10399999999998,361.805 76.59799999999998,365.212 78.039,368.337 80.309,370.925 83.221,372.761 86.534,373.693 89.976,373.647 93.263,372.624 93.263,372.624 90.715,379.033 90.715,379.033 86.36100000000002,379.082 82.534,379.214 79.26100000000001,379.589 76.57100000000001,380.366 74.491,381.702 73.049,383.75600000000003 72.274,386.687 72.274,386.687 43.40300000000001,386.687 43.40300000000001,386.687 43.403,361.805" stroke="black" stroke-width="0.5" /><polygon fill="none" points="88.584,327.486 88.921,330.473 89.914,333.311 91.513,335.856 93.63900000000001,337.98199999999997 96.184,339.581 99.02199999999999,340.574 102.009,340.90999999999997 102.009,340.90999999999997 104.99600000000001,340.574 107.834,339.581 110.379,337.98199999999997 112.505,335.856 114.104,333.311 115.09700000000001,330.473 115.43299999999999,327.486 115.43299999999999,327.486 139.994,327.486 139.994,327.486 138.27100000000002,346.16499999999996 127.91300000000001,361.805 111.388,370.682 92.63,370.682 76.104,361.805 65.747,346.16499999999996 64.024,327.486 64.024,327.486 88.584,327.486" stroke="black" stroke-width="0.5" /><polygon fill="none" points="7.811999999999995,298.0 21.478999999999996,305.628 36.23799999999999,310.839 51.665,313.482 67.316,313.482 82.743,310.839 97.502,305.628 111.169,298.0 111.169,298.0 118.0,308.116 118.0,308.116 102.527,316.753 85.817,322.652 68.351,325.645 50.629999999999995,325.645 33.163999999999994,322.652 16.454999999999995,316.753 0.9809999999999945,308.116 0.9809999999999945,308.116 7.811999999999995,298.0" stroke="black" stroke-width="0.5" /><polygon fill="none" points="1.450000000000007,372.556 1.45,345.332 1.45,345.332 30.359999999999992,345.332 30.359999999999992,345.332 30.851999999999993,348.479 32.135999999999996,350.782 34.16499999999999,352.403 36.891999999999996,353.506 40.272,354.252 44.257,354.805 48.801,355.328 48.801,355.328 51.349000000000004,361.73699999999997 51.349000000000004,361.73699999999997 48.255,361.04699999999997 45.089,361.22499999999997 42.092,362.256 39.487,364.06399999999996 37.473000000000006,366.512 36.2,369.416 35.76500000000001,372.556 35.76500000000001,372.556 1.450000000000007,372.556" stroke="black" stroke-width="0.5" /><polygon fill="none" points="110.205,394.536 112.82300000000001,392.30100000000004 114.69800000000001,389.415 115.676,386.115 115.676,382.672 114.69800000000001,379.372 112.823,376.48600000000005 110.205,374.25100000000003 110.205,374.25100000000003 111.27199999999999,372.559 111.27199999999999,372.559 114.326,375.16700000000003 116.515,378.535 117.656,382.38500000000005 117.656,386.40200000000004 116.515,390.25300000000004 114.32600000000001,393.62 111.272,396.228 111.272,396.228 110.205,394.536" stroke="black" stroke-width="0.5" /><polygon fill="none" points="63.52799999999999,326.771 63.528,351.653 63.528,351.653 34.657000000000004,351.653 34.657000000000004,351.653 33.882000000000005,348.72200000000004 32.440000000000005,346.668 30.360000000000007,345.33200000000005 27.67,344.55600000000004 24.397000000000002,344.18100000000004 20.57,344.048 16.216,344.0 16.216,344.0 13.668000000000001,337.59000000000003 13.668000000000001,337.59000000000003 16.955000000000002,338.613 20.397000000000002,338.66 23.71,337.72700000000003 26.622,335.891 28.892,333.30400000000003 30.333,330.178 30.826999999999998,326.771 30.826999999999998,326.771 63.52799999999999,326.771" stroke="black" stroke-width="0.5" /><polygon fill="none" points="136.58800000000002,373.167 136.58800000000002,375.167 136.58800000000002,375.167 114.32600000000001,375.167 114.32600000000001,375.167 118.498,373.693 122.34,372.615 125.852,371.933 129.032,371.647 131.881,371.757 134.4,372.264 136.58800000000002,373.167" stroke="black" stroke-width="0.5" /><polygon fill="none" points="136.58800000000002,377.16700000000003 134.4,378.07000000000005 131.881,378.576 129.032,378.687 125.852,378.401 122.34,377.71900000000005 118.498,376.641 114.32600000000001,375.16700000000003 114.32600000000001,375.16700000000003 136.58800000000002,375.16700000000003 136.58800000000002,375.16700000000003 136.58800000000002,377.16700000000003" stroke="black" stroke-width="0.5" /><polygon fill="none" points="45.965,281.73900000000003 46.30200000000001,284.72600000000006 47.295,287.564 48.894000000000005,290.10900000000004 51.02,292.235 53.565000000000005,293.83400000000006 56.403,294.82700000000006 59.39,295.163 59.39,295.163 62.377,294.82700000000006 65.215,293.83400000000006 67.76,292.235 69.886,290.10900000000004 71.485,287.564 72.47800000000001,284.72600000000006 72.814,281.73900000000003 72.814,281.73900000000003 97.375,281.73900000000003 97.375,281.73900000000003 91.97800000000001,296.216 81.31800000000001,307.39900000000006 67.11500000000001,313.482 51.665000000000006,313.482 37.462,307.39900000000006 26.802,296.216 21.405,281.73900000000003 21.405,281.73900000000003 45.965,281.73900000000003" stroke="black" stroke-width="0.5" /><polygon fill="none" points="138.393,269.09000000000003 138.393,303.40500000000003 138.393,303.40500000000003 135.25300000000001,303.84000000000003 132.349,305.11300000000006 129.901,307.12700000000007 128.09300000000002,309.732 127.06200000000001,312.72900000000004 126.884,315.89500000000004 127.57400000000001,318.98900000000003 127.57400000000001,318.98900000000003 121.165,316.44100000000003 121.165,316.44100000000003 120.642,311.89700000000005 120.089,307.91200000000003 119.342,304.53200000000004 118.24000000000001,301.80500000000006 116.618,299.776 114.316,298.492 111.169,298.00000000000006 111.169,298.00000000000006 111.169,269.09000000000003 111.169,269.09000000000003 138.393,269.09000000000003" stroke="black" stroke-width="0.5" /><polygon fill="none" points="7.711,254.876 21.378,262.504 36.137,267.71500000000003 51.56400000000001,270.358 67.215,270.358 82.642,267.71500000000003 97.401,262.504 111.068,254.876 111.068,254.876 117.899,264.992 117.899,264.992 102.426,273.629 85.716,279.528 68.25,282.521 50.529,282.521 33.063,279.528 16.354,273.629 0.88,264.992 0.88,264.992 7.711,254.876" stroke="black" stroke-width="0.5" /><polygon fill="none" points="8.382000000000003,241.32100000000003 21.871000000000006,248.85000000000002 36.43899999999999,253.99300000000002 51.665000000000006,256.60200000000003 67.113,256.60200000000003 82.34,253.993 96.90700000000001,248.85 110.396,241.321 110.396,241.321 117.227,251.437 117.227,251.437 101.931,259.975 85.413,265.806 68.14800000000001,268.765 50.631,268.765 33.36500000000001,265.80600000000004 16.847000000000005,259.975 1.551,251.437 1.551,251.437 8.382000000000003,241.32100000000003" stroke="black" stroke-width="0.5" /><polygon fill="none" points="126.436,391.735 128.12800000000001,392.802 128.12800000000001,392.802 125.52000000000001,395.856 122.152,398.045 118.302,399.18600000000004 114.285,399.18600000000004 110.434,398.045 107.06700000000001,395.856 104.459,392.802 104.459,392.802 106.151,391.735 106.151,391.735 108.38600000000001,394.353 111.272,396.228 114.572,397.206 118.015,397.206 121.315,396.228 124.20100000000001,394.353 126.436,391.735" stroke="black" stroke-width="0.5" /></svg>