<?xml version="1.0" encoding="utf-8" ?>
<svg baseProfile="full" height="400cm" version="1.1" viewBox="0 0 140 400" width="140cm" xmlns="http://www.w3.org/2000/svg" xmlns:ev="http://www.w3.org/2001/xml-events" xmlns:xlink="http://www.w3.org/1999/xlink"><defs /><polygon fill="none" points="22.262,398.48 20.074,399.38300000000004 17.555,399.889 14.706,400.0 11.526,399.714 8.014,399.03200000000004 4.172000000000001,397.954 0.0,396.48 0.0,396.48 22.262,396.48 22.262,396.48 22.262,398.48" stroke="black" stroke-width="0.5" /><polygon fill="none" points="7.811999999999995,372.0 21.478999999999996,379.628 36.23799999999999,384.839 51.665,387.482 67.316,387.482 82.743,384.839 97.502,379.628 111.169,372.0 111.169,372.0 118.0,382.116 118.0,382.116 102.527,390.753 85.817,396.652 68.351,399.645 50.629999999999995,399.645 33.163999999999994,396.652 16.454999999999995,390.753 0.9809999999999945,382.116 0.9809999999999945,382.116 7.811999999999995,372.0" stroke="black" stroke-width="0.5" /><polygon fill="none" points="8.483,358.445 21.972,365.974 36.54,371.117 51.766000000000005,373.726 67.214,373.726 82.441,371.117 97.00800000000001,365.974 110.497,358.445 110.497,358.445 117.328,368.561 117.328,368.561 102.032,377.099 85.514,382.93 68.24900000000001,385.889 50.732,385.889 33.466,382.93 16.948,377.099 1.6520000000000001,368.561 1.6520000000000001,368.561 8.483,358.445" stroke="black" stroke-width="0.5" /><polygon fill="none" points="70.62100000000001,371.142 70.62100000000001,373.142 70.62100000000001,373.142 48.359,373.142 48.359,373.142 52.531000000000006,371.668 56.373000000000005,370.59000000000003 59.885000000000005,369.908 63.065,369.622 65.914,369.732 68.433,370.23900000000003 70.62100000000001,371.142" stroke="black" stroke-width="0.5" /><polygon fill="none" points="41.20600000000001,347.071 44.19300000000001,346.734 47.03100000000001,345.741 49.576000000000015,344.142 51.70200000000001,342.01599999999996 53.301000000000016,339.471 54.29400000000001,336.633 54.63000000000001,333.646 54.63000000000001,333.646 54.29400000000001,330.659 53.30100000000001,327.821 51.70200000000001,325.276 49.57600000000001,323.15 47.031000000000006,321.551 44.193000000000005,320.558 41.20600000000001,320.222 41.20600000000001,320.222 41.206,295.661 41.206,295.661 59.885000000000005,297.384 75.525,307.74199999999996 84.40200000000002,324.267 84.40200000000002,343.025 75.52500000000002,359.551 59.88500000000002,369.908 41.20600000000002,371.631 41.20600000000002,371.631 41.20600000000001,347.071" stroke="black" stroke-width="0.5" /><polygon fill="none" points="11.153,316.11400000000003 36.035000000000004,316.11400000000003 36.035000000000004,316.11400000000003 36.035000000000004,344.985 36.035000000000004,344.985 33.104000000000006,345.76000000000005 31.050000000000004,347.20200000000006 29.714000000000006,349.28200000000004 28.93800000000001,351.97200000000004 28.56300000000001,355.245 28.430000000000007,359.072 28.382000000000005,363.42600000000004 28.382000000000005,363.42600000000004 21.97200000000001,365.97400000000005 21.97200000000001,365.97400000000005 22.995000000000008,362.687 23.04200000000001,359.245 22.10900000000001,355.932 20.273000000000007,353.02000000000004 17.686000000000007,350.75000000000006 14.560000000000004,349.309 11.153000000000004,348.81500000000005 11.153000000000004,348.81500000000005 11.153,316.11400000000003" stroke="black" stroke-width="0.5" /><polygon fill="none" points="84.402,324.267 84.402,297.043 84.402,297.043 113.312,297.043 113.312,297.043 113.804,300.19 115.088,302.493 117.117,304.11400000000003 119.844,305.217 123.224,305.963 127.209,306.516 131.753,307.039 131.753,307.039 134.301,313.448 134.301,313.448 131.207,312.758 128.041,312.936 125.04400000000001,313.967 122.43900000000001,315.775 120.42500000000001,318.223 119.152,321.127 118.71700000000001,324.267 118.71700000000001,324.267 84.402,324.267" stroke="black" stroke-width="0.5" /><polygon fill="none" points="135.079,325.754 135.079,360.069 135.079,360.069 131.93900000000002,360.504 129.03500000000003,361.77700000000004 126.58700000000002,363.79100000000005 124.77900000000001,366.396 123.74800000000002,369.39300000000003 123.57000000000001,372.559 124.26000000000002,375.653 124.26000000000002,375.653 117.85100000000001,373.105 117.85100000000001,373.105 117.328,368.56100000000004 116.775,364.576 116.028,361.196 114.92600000000002,358.46900000000005 113.304,356.44 111.00200000000001,355.156 107.855,354.66400000000004 107.855,354.66400000000004 107.855,325.754 107.855,325.754 135.079,325.754" stroke="black" stroke-width="0.5" /><polygon fill="none" points="126.979,304.671 113.312,297.043 98.553,291.832 83.126,289.189 67.475,289.189 52.048,291.832 37.289,297.043 23.622000000000003,304.671 23.622000000000003,304.671 16.791,294.555 16.791,294.555 32.263999999999996,285.918 48.974000000000004,280.019 66.44,277.026 84.161,277.026 101.62700000000001,280.019 118.336,285.918 133.81,294.555 133.81,294.555 126.979,304.671" stroke="black" stroke-width="0.5" /><polygon fill="none" points="126.307,290.367 112.818,282.838 98.25000000000001,277.695 83.024,275.086 67.57600000000001,275.086 52.349000000000004,277.695 37.782,282.838 24.293000000000003,290.367 24.293000000000003,290.367 17.462,280.25100000000003 17.462,280.25100000000003 32.75800000000001,271.713 49.27600000000001,265.882 66.541,262.923 84.058,262.923 101.324,265.882 117.842,271.713 133.138,280.251 133.138,280.251 126.307,290.367" stroke="black" stroke-width="0.5" /><polygon fill="none" points="3.887,246.83100000000002 36.588,246.83100000000002 36.588,246.83100000000002 37.082,250.23800000000003 38.522999999999996,253.36300000000003 40.793,255.95100000000002 43.705,257.78700000000003 47.018,258.719 50.46,258.673 53.747,257.65000000000003 53.747,257.65000000000003 51.199,264.059 51.199,264.059 46.845,264.108 43.018,264.24 39.745000000000005,264.615 37.055,265.392 34.974999999999994,266.728 33.532999999999994,268.78200000000004 32.757999999999996,271.713 32.757999999999996,271.713 3.887,271.713 3.887,271.713 3.887,246.83100000000002" stroke="black" stroke-width="0.5" /><polygon fill="none" points="118.90899999999999,249.73600000000002 116.291,251.971 114.416,254.857 113.438,258.15700000000004 113.438,261.6 114.416,264.90000000000003 116.291,267.786 118.909,270.021 118.909,270.021 117.842,271.713 117.842,271.713 114.788,269.105 112.599,265.737 111.458,261.887 111.458,257.87 112.599,254.019 114.788,250.65200000000002 117.842,248.044 117.842,248.044 118.90899999999999,249.73600000000002" stroke="black" stroke-width="0.5" /><polygon fill="none" points="90.228,250.652 89.89099999999999,247.665 88.898,244.827 87.29899999999999,242.28199999999998 85.173,240.156 82.62799999999999,238.557 79.78999999999999,237.564 76.803,237.228 76.803,237.228 73.816,237.564 70.978,238.557 68.43299999999999,240.156 66.30699999999999,242.28199999999998 64.708,244.827 63.714999999999996,247.665 63.379,250.652 63.379,250.652 38.818,250.652 38.818,250.652 44.21499999999999,236.175 54.87499999999999,224.992 69.07799999999999,218.909 84.52799999999999,218.909 98.731,224.992 109.39099999999999,236.17499999999998 114.788,250.652 114.788,250.652 90.228,250.652" stroke="black" stroke-width="0.5" /><polygon fill="none" points="85.318,292.922 87.01,293.98900000000003 87.01,293.98900000000003 84.402,297.043 81.034,299.232 77.184,300.37300000000005 73.167,300.37300000000005 69.316,299.232 65.949,297.043 63.341,293.98900000000003 63.341,293.98900000000003 65.033,292.922 65.033,292.922 67.268,295.54 70.154,297.415 73.45400000000001,298.39300000000003 76.897,298.39300000000003 80.197,297.415 83.083,295.54 85.318,292.922" stroke="black" stroke-width="0.5" /></svg>