<?xml version="1.0" encoding="utf-8" ?>
<svg baseProfile="full" height="400cm" version="1.1" viewBox="0 0 140 400" width="140cm" xmlns="http://www.w3.org/2000/svg" xmlns:ev="http://www.w3.org/2001/xml-events" xmlns:xlink="http://www.w3.org/1999/xlink"><defs /><polygon fill="none" points="6.831000000000003,372.55600000000004 20.320000000000007,380.085 34.88799999999999,385.228 50.114000000000004,387.837 65.562,387.837 80.789,385.228 95.35600000000001,380.085 108.845,372.556 108.845,372.556 115.676,382.67199999999997 115.676,382.67199999999997 100.38,391.21 83.862,397.041 66.59700000000001,400.0 49.08,400.0 31.814000000000007,397.041 15.296000000000006,391.21000000000004 0.0,382.672 0.0,382.672 6.831000000000003,372.55600000000004" stroke="black" stroke-width="0.5" /><polygon fill="none" points="74.189,386.35900000000004 41.488,386.35900000000004 41.488,386.35900000000004 40.994,382.95200000000006 39.553,379.82700000000006 37.283,377.23900000000003 34.371,375.403 31.058,374.47100000000006 27.616,374.51700000000005 24.329,375.54 24.329,375.54 26.877,369.13100000000003 26.877,369.13100000000003 31.230999999999998,369.08200000000005 35.058,368.95000000000005 38.331,368.57500000000005 41.021,367.79800000000006 43.101,366.46200000000005 44.543000000000006,364.408 45.318,361.47700000000003 45.318,361.47700000000003 74.189,361.47700000000003 74.189,361.47700000000003 74.189,386.35900000000004" stroke="black" stroke-width="0.5" /><polygon fill="none" points="88.12700000000001,329.36 88.464,332.34700000000004 89.457,335.185 91.056,337.73 93.182,339.856 95.727,341.45500000000004 98.565,342.44800000000004 101.55199999999999,342.784 101.55199999999999,342.784 104.539,342.44800000000004 107.37700000000001,341.45500000000004 109.922,339.856 112.048,337.73 113.64699999999999,335.185 114.64,332.34700000000004 114.976,329.36 114.976,329.36 139.537,329.36 139.537,329.36 137.814,348.039 127.456,363.67900000000003 110.93100000000001,372.55600000000004 92.173,372.55600000000004 75.647,363.67900000000003 65.29,348.039 63.567,329.36 63.567,329.36 88.12700000000001,329.36" stroke="black" stroke-width="0.5" /><polygon fill="none" points="7.811999999999995,300.0 21.478999999999996,307.628 36.23799999999999,312.839 51.665,315.482 67.316,315.482 82.743,312.839 97.502,307.628 111.169,300.0 111.169,300.0 118.0,310.116 118.0,310.116 102.527,318.753 85.817,324.652 68.351,327.645 50.629999999999995,327.645 33.163999999999994,324.652 16.454999999999995,318.753 0.9809999999999945,310.116 0.9809999999999945,310.116 7.811999999999995,300.0" stroke="black" stroke-width="0.5" /><polygon fill="none" points="64.018,334.253 64.018,361.477 64.018,361.477 35.108000000000004,361.477 35.108000000000004,361.477 34.616,358.33 33.33200000000001,356.027 31.303000000000004,354.406 28.576,353.303 25.196,352.557 21.211000000000002,352.004 16.667,351.481 16.667,351.481 14.119,345.072 14.119,345.072 17.213,345.762 20.378999999999998,345.584 23.375999999999998,344.553 25.981,342.745 27.994999999999997,340.29699999999997 29.268,337.393 29.702999999999996,334.253 29.702999999999996,334.253 64.018,334.253" stroke="black" stroke-width="0.5" /><polygon fill="none" points="126.389,385.656 129.007,383.42100000000005 130.882,380.535 131.85999999999999,377.235 131.85999999999999,373.79200000000003 130.882,370.492 129.007,367.60600000000005 126.389,365.37100000000004 126.389,365.37100000000004 127.45599999999999,363.67900000000003 127.45599999999999,363.67900000000003 130.51,366.28700000000003 132.69899999999998,369.65500000000003 133.84,373.50500000000005 133.84,377.52200000000005 132.699,381.37300000000005 130.51,384.74 127.456,387.348 127.456,387.348 126.389,385.656" stroke="black" stroke-width="0.5" /><polygon fill="none" points="8.483,286.445 21.972,293.974 36.54,299.117 51.766000000000005,301.726 67.214,301.726 82.441,299.117 97.00800000000001,293.974 110.497,286.445 110.497,286.445 117.328,296.561 117.328,296.561 102.032,305.099 85.514,310.93 68.24900000000001,313.889 50.732,313.889 33.466,310.93 16.948,305.099 1.6520000000000001,296.561 1.6520000000000001,296.561 8.483,286.445" stroke="black" stroke-width="0.5" /><polygon fill="none" points="73.92599999999999,275.694 73.926,300.576 73.926,300.576 45.05500000000001,300.576 45.05500000000001,300.576 44.28,297.64500000000004 42.83800000000001,295.591 40.758,294.25500000000005 38.068,293.47900000000004 34.795,293.10400000000004 30.968,292.971 26.614,292.923 26.614,292.923 24.066,286.51300000000003 24.066,286.51300000000003 27.352999999999998,287.536 30.794999999999998,287.583 34.108,286.65000000000003 37.019999999999996,284.814 39.29,282.22700000000003 40.730999999999995,279.101 41.224999999999994,275.694 41.224999999999994,275.694 73.92599999999999,275.694" stroke="black" stroke-width="0.5" /><polygon fill="none" points="87.594,255.453 87.931,258.44 88.924,261.278 90.523,263.823 92.649,265.949 95.194,267.548 98.032,268.541 101.019,268.877 101.019,268.877 104.006,268.541 106.844,267.548 109.38900000000001,265.949 111.515,263.823 113.114,261.278 114.107,258.44 114.443,255.453 114.443,255.453 139.004,255.453 139.004,255.453 133.607,269.93 122.947,281.113 108.744,287.196 93.294,287.196 79.091,281.113 68.431,269.93 63.034,255.453 63.034,255.453 87.594,255.453" stroke="black" stroke-width="0.5" /><polygon fill="none" points="34.928,244.238 34.928000000000004,278.553 34.928000000000004,278.553 31.788000000000007,278.988 28.884000000000007,280.261 26.436000000000007,282.275 24.628000000000007,284.88 23.59700000000001,287.877 23.419000000000008,291.043 24.10900000000001,294.137 24.10900000000001,294.137 17.700000000000006,291.589 17.700000000000006,291.589 17.177000000000007,287.045 16.624000000000006,283.06 15.877000000000006,279.68 14.775000000000006,276.953 13.153000000000002,274.924 10.851000000000003,273.64 7.704000000000003,273.148 7.704000000000003,273.148 7.704,244.238 7.704,244.238 34.928,244.238" stroke="black" stroke-width="0.5" /><polygon fill="none" points="133.19500000000002,355.01300000000003 135.19500000000002,355.01300000000003 135.19500000000002,355.01300000000003 135.19500000000002,377.27500000000003 135.19500000000002,377.27500000000003 133.721,373.103 132.643,369.261 131.961,365.749 131.675,362.569 131.78500000000003,359.72 132.292,357.201 133.19500000000002,355.01300000000003" stroke="black" stroke-width="0.5" /><polygon fill="none" points="26.285,225.485 39.952,233.113 54.711,238.324 70.138,240.967 85.78900000000002,240.967 101.21600000000001,238.324 115.975,233.113 129.642,225.485 129.642,225.485 136.473,235.601 136.473,235.601 121.0,244.238 104.28999999999999,250.137 86.82400000000001,253.13000000000002 69.10300000000001,253.13000000000002 51.637,250.137 34.928,244.238 19.454,235.601 19.454,235.601 26.285,225.485" stroke="black" stroke-width="0.5" /><polygon fill="none" points="42.379,274.002 41.312,275.694 41.312,275.694 38.257999999999996,273.086 36.068999999999996,269.718 34.928,265.868 34.928,261.851 36.068999999999996,258.0 38.257999999999996,254.633 41.312,252.025 41.312,252.025 42.379,253.717 42.379,253.717 39.760999999999996,255.952 37.885999999999996,258.838 36.908,262.13800000000003 36.908,265.581 37.885999999999996,268.88100000000003 39.760999999999996,271.767 42.379,274.002" stroke="black" stroke-width="0.5" /><polygon fill="none" points="137.00400000000002,277.71500000000003 136.101,275.527 135.595,273.008 135.484,270.159 135.77,266.979 136.452,263.467 137.53,259.625 139.00400000000002,255.453 139.00400000000002,255.453 139.00400000000002,277.71500000000003 139.00400000000002,277.71500000000003 137.00400000000002,277.71500000000003" stroke="black" stroke-width="0.5" /></svg>