<?xml version="1.0" encoding="utf-8" ?>
<svg baseProfile="full" height="400cm" version="1.1" viewBox="0 0 140 400" width="140cm" xmlns="http://www.w3.org/2000/svg" xmlns:ev="http://www.w3.org/2001/xml-events" xmlns:xlink="http://www.w3.org/1999/xlink"><defs /><polygon fill="none" points="6.831000000000003,372.55600000000004 20.320000000000007,380.085 34.88799999999999,385.228 50.114000000000004,387.837 65.562,387.837 80.789,385.228 95.35600000000001,380.085 108.845,372.556 108.845,372.556 115.676,382.67199999999997 115.676,382.67199999999997 100.38,391.21 83.862,397.041 66.59700000000001,400.0 49.08,400.0 31.814000000000007,397.041 15.296000000000006,391.21000000000004 0.0,382.672 0.0,382.672 6.831000000000003,372.55600000000004" stroke="black" stroke-width="0.5" /><polygon fill="none" points="43.403,361.805 76.10399999999998,361.805 76.10399999999998,361.805 76.59799999999998,365.212 78.039,368.337 80.309,370.925 83.221,372.761 86.534,373.693 89.976,373.647 93.263,372.624 93.263,372.624 90.715,379.033 90.715,379.033 86.36100000000002,379.082 82.534,379.214 79.26100000000001,379.589 76.57100000000001,380.366 74.491,381.702 73.049,383.75600000000003 72.274,386.687 72.274,386.687 43.40300000000001,386.687 43.40300000000001,386.687 43.403,361.805" stroke="black" stroke-width="0.5" /><polygon fill="none" points="88.584,327.486 88.921,330.473 89.914,333.311 91.513,335.856 93.63900000000001,337.98199999999997 96.184,339.581 99.02199999999999,340.574 102.009,340.90999999999997 102.009,340.90999999999997 104.99600000000001,340.574 107.834,339.581 110.379,337.98199999999997 112.505,335.856 114.104,333.311 115.09700000000001,330.473 115.43299999999999,327.486 115.43299999999999,327.486 139.994,327.486 139.994,327.486 138.27100000000002,346.16499999999996 127.91300000000001,361.805 111.388,370.682 92.63,370.682 76.104,361.805 65.747,346.16499999999996 64.024,327.486 64.024,327.486 88.584,327.486" stroke="black" stroke-width="0.5" /><polygon fill="none" points="7.811999999999995,298.0 21.478999999999996,305.628 36.23799999999999,310.839 51.665,313.482 67.316,313.482 82.743,310.839 97.502,305.628 111.169,298.0 111.169,298.0 118.0,308.116 118.0,308.116 102.527,316.753 85.817,322.652 68.351,325.645 50.629999999999995,325.645 33.163999999999994,322.652 16.454999999999995,316.753 0.9809999999999945,308.116 0.9809999999999945,308.116 7.811999999999995,298.0" stroke="black" stroke-width="0.5" /><polygon fill="none" points="1.450000000000007,372.556 1.45,345.332 1.45,345.332 30.359999999999992,345.332 30.359999999999992,345.332 30.851999999999993,348.479 32.135999999999996,350.782 34.16499999999999,352.403 36.891999999999996,353.506 40.272,354.252 44.257,354.805 48.801,355.328 48.801,355.328 51.349000000000004,361.73699999999997 51.349000000000004,361.73699999999997 48.255,361.04699999999997 45.089,361.22499999999997 42.092,362.256 39.487,364.06399999999996 37.473000000000006,366.512 36.2,369.416 35.76500000000001,372.556 35.76500000000001,372.556 1.450000000000007,372.556" stroke="black" stroke-width="0.5" /><polygon fill="none" points="110.205,394.536 112.82300000000001,392.30100000000004 114.69800000000001,389.415 115.676,386.115 115.676,382.672 114.69800000000001,379.372 112.823,376.48600000000005 110.205,374.25100000000003 110.205,374.25100000000003 111.27199999999999,372.559 111.27199999999999,372.559 114.326,375.16700000000003 116.515,378.535 117.656,382.38500000000005 117.656,386.40200000000004 116.515,390.25300000000004 114.32600000000001,393.62 111.272,396.228 111.272,396.228 110.205,394.536" stroke="black" stroke-width="0.5" /><polygon fill="none" points="63.52799999999999,326.771 63.528,351.653 63.528,351.653 34.657000000000004,351.653 34.657000000000004,351.653 33.882000000000005,348.72200000000004 32.440000000000005,346.668 30.360000000000007,345.33200000000005 27.67,344.55600000000004 24.397000000000002,344.18100000000004 20.57,344.048 16.216,344.0 16.216,344.0 13.668000000000001,337.59000000000003 13.668000000000001,337.59000000000003 16.955000000000002,338.613 20.397000000000002,338.66 23.71,337.72700000000003 26.622,335.891 28.892,333.30400000000003 30.333,330.178 30.826999999999998,326.771 30.826999999999998,326.771 63.52799999999999,326.771" stroke="black" stroke-width="0.5" /><polygon fill="none" points="138.393,269.09000000000003 138.393,303.40500000000003 138.393,303.40500000000003 135.25300000000001,303.84000000000003 132.349,305.11300000000006 129.901,307.12700000000007 128.09300000000002,309.732 127.06200000000001,312.72900000000004 126.884,315.89500000000004 127.57400000000001,318.98900000000003 127.57400000000001,318.98900000000003 121.165,316.44100000000003 121.165,316.44100000000003 120.642,311.89700000000005 120.089,307.91200000000003 119.342,304.53200000000004 118.24000000000001,301.80500000000006 116.618,299.776 114.316,298.492 111.169,298.00000000000006 111.169,298.00000000000006 111.169,269.09000000000003 111.169,269.09000000000003 138.393,269.09000000000003" stroke="black" stroke-width="0.5" /><polygon fill="none" points="24.772000000000002,277.06 25.109,280.047 26.102,282.885 27.701,285.43 29.827,287.556 32.37200000000001,289.15500000000003 35.21,290.148 38.197,290.484 38.197,290.484 41.184000000000005,290.148 44.022000000000006,289.15500000000003 46.56700000000001,287.556 48.693000000000005,285.43 50.292,282.885 51.285000000000004,280.047 51.621,277.06 51.621,277.06 76.182,277.06 76.182,277.06 70.78500000000001,291.537 60.12500000000001,302.72 45.922000000000004,308.803 30.472,308.803 16.269,302.72 5.609,291.537 0.212,277.06 0.212,277.06 24.772000000000002,277.06" stroke="black" stroke-width="0.5" /><polygon fill="none" points="129.36200000000002,373.085 127.174,373.988 124.655,374.49399999999997 121.80600000000001,374.60499999999996 118.626,374.31899999999996 115.114,373.637 111.272,372.55899999999997 107.10000000000001,371.085 107.10000000000001,371.085 129.36200000000002,371.085 129.36200000000002,371.085 129.36200000000002,373.085" stroke="black" stroke-width="0.5" /><polygon fill="none" points="136.58800000000002,391.62 136.58800000000002,393.62 136.58800000000002,393.62 114.32600000000001,393.62 114.32600000000001,393.62 118.498,392.146 122.34,391.06800000000004 125.852,390.386 129.032,390.1 131.881,390.21000000000004 134.4,390.71700000000004 136.58800000000002,391.62" stroke="black" stroke-width="0.5" /><polygon fill="none" points="7.1549999999999985,248.0 20.644,255.529 35.211999999999996,260.672 50.438,263.281 65.886,263.281 81.113,260.672 95.68,255.529 109.169,248.0 109.169,248.0 116.0,258.116 116.0,258.116 100.704,266.654 84.18599999999999,272.485 66.921,275.444 49.403999999999996,275.444 32.138,272.485 15.62,266.654 0.32399999999999807,258.116 0.32399999999999807,258.116 7.1549999999999985,248.0" stroke="black" stroke-width="0.5" /><polygon fill="none" points="14.454,229.247 28.121000000000002,236.875 42.879999999999995,242.086 58.307,244.729 73.95800000000001,244.729 89.385,242.086 104.144,236.875 117.811,229.247 117.811,229.247 124.64200000000001,239.363 124.64200000000001,239.363 109.16900000000001,248.0 92.459,253.899 74.99300000000001,256.892 57.272,256.892 39.806,253.899 23.097,248.0 7.623,239.363 7.623,239.363 14.454,229.247" stroke="black" stroke-width="0.5" /><polygon fill="none" points="135.995,313.51800000000003 137.687,314.58500000000004 137.687,314.58500000000004 135.079,317.639 131.711,319.82800000000003 127.861,320.96900000000005 123.844,320.96900000000005 119.993,319.82800000000003 116.626,317.639 114.018,314.58500000000004 114.018,314.58500000000004 115.71,313.51800000000003 115.71,313.51800000000003 117.94500000000001,316.136 120.831,318.011 124.131,318.98900000000003 127.574,318.98900000000003 130.874,318.011 133.76,316.136 135.995,313.51800000000003" stroke="black" stroke-width="0.5" /></svg>