<?xml version="1.0" encoding="utf-8" ?>
<svg baseProfile="full" height="400cm" version="1.1" viewBox="0 0 140 400" width="140cm" xmlns="http://www.w3.org/2000/svg" xmlns:ev="http://www.w3.org/2001/xml-events" xmlns:xlink="http://www.w3.org/1999/xlink"><defs /><polygon fill="none" points="6.831,372.355 20.498,379.983 35.257,385.194 50.684000000000005,387.83700000000005 66.33500000000001,387.83700000000005 81.762,385.194 96.521,379.983 110.188,372.355 110.188,372.355 117.019,382.471 117.019,382.471 101.546,391.108 84.836,397.007 67.37,400.0 49.649,400.0 32.183,397.007 15.474,391.108 0.0,382.471 0.0,382.471 6.831,372.355" stroke="black" stroke-width="0.5" /><polygon fill="none" points="44.898,386.846 44.898,352.531 44.898,352.531 48.038000000000004,352.096 50.94200000000001,350.823 53.39,348.809 55.19800000000001,346.204 56.229,343.207 56.407000000000004,340.041 55.717000000000006,336.947 55.717000000000006,336.947 62.126000000000005,339.495 62.126000000000005,339.495 62.649,344.039 63.202000000000005,348.024 63.949000000000005,351.404 65.051,354.13100000000003 66.673,356.16 68.97500000000001,357.444 72.122,357.936 72.122,357.936 72.122,386.846 72.122,386.846 44.898,386.846" stroke="black" stroke-width="0.5" /><polygon fill="none" points="44.897999999999996,378.407 17.674,378.407 17.674,378.407 17.674,349.49699999999996 17.674,349.49699999999996 20.820999999999998,349.005 23.124,347.721 24.744999999999997,345.692 25.848,342.965 26.594,339.585 27.147,335.59999999999997 27.67,331.056 27.67,331.056 34.079,328.508 34.079,328.508 33.388999999999996,331.602 33.567,334.768 34.598,337.765 36.406,340.37 38.854,342.38399999999996 41.757999999999996,343.657 44.897999999999996,344.092 44.897999999999996,344.092 44.897999999999996,378.407" stroke="black" stroke-width="0.5" /><polygon fill="none" points="65.051,329.249 97.75200000000001,329.249 97.75200000000001,329.249 98.24600000000001,332.656 99.687,335.781 101.957,338.369 104.869,340.20500000000004 108.182,341.137 111.624,341.091 114.911,340.06800000000004 114.911,340.06800000000004 112.363,346.47700000000003 112.363,346.47700000000003 108.009,346.526 104.182,346.658 100.909,347.033 98.219,347.81 96.139,349.146 94.697,351.20000000000005 93.922,354.13100000000003 93.922,354.13100000000003 65.051,354.13100000000003 65.051,354.13100000000003 65.051,329.249" stroke="black" stroke-width="0.5" /><polygon fill="none" points="74.264,381.98 74.264,379.98 74.264,379.98 96.526,379.98 96.526,379.98 92.354,381.454 88.512,382.53200000000004 85.0,383.214 81.82,383.5 78.971,383.39000000000004 76.452,382.88300000000004 74.264,381.98" stroke="black" stroke-width="0.5" /><polygon fill="none" points="95.45400000000001,358.00600000000003 96.521,356.314 96.521,356.314 99.575,358.922 101.76400000000001,362.29 102.90500000000002,366.14000000000004 102.90500000000002,370.15700000000004 101.76400000000001,374.00800000000004 99.57500000000002,377.375 96.52100000000002,379.983 96.52100000000002,379.983 95.45400000000001,378.291 95.45400000000001,378.291 98.07200000000002,376.05600000000004 99.94700000000002,373.17 100.92500000000001,369.87 100.92500000000001,366.427 99.947,363.127 98.072,360.24100000000004 95.45400000000001,358.00600000000003" stroke="black" stroke-width="0.5" /><polygon fill="none" points="60.928,328.50800000000004 60.590999999999994,325.521 59.598,322.683 57.998999999999995,320.13800000000003 55.873,318.012 53.327999999999996,316.413 50.49,315.42 47.503,315.084 47.503,315.084 44.516,315.42 41.678,316.413 39.132999999999996,318.012 37.007,320.13800000000003 35.408,322.683 34.415,325.521 34.079,328.50800000000004 34.079,328.50800000000004 9.518,328.50800000000004 9.518,328.50800000000004 11.241,309.829 21.59899999999999,294.189 38.12399999999999,285.312 56.88199999999999,285.312 73.40799999999999,294.189 83.765,309.829 85.488,328.50800000000004 85.488,328.50800000000004 60.928,328.50800000000004" stroke="black" stroke-width="0.5" /><polygon fill="none" points="114.98499999999999,231.35999999999999 107.45599999999999,244.849 102.31299999999999,259.417 99.704,274.64300000000003 99.704,290.091 102.313,305.318 107.456,319.885 114.985,333.374 114.985,333.374 104.869,340.205 104.869,340.205 96.331,324.909 90.5,308.39099999999996 87.541,291.126 87.541,273.609 90.5,256.343 96.33099999999999,239.825 104.869,224.529 104.869,224.529 114.98499999999999,231.35999999999999" stroke="black" stroke-width="0.5" /><polygon fill="none" points="11.32,205.875 24.809,213.404 39.376999999999995,218.547 54.603,221.156 70.051,221.156 85.278,218.547 99.84500000000001,213.404 113.334,205.875 113.334,205.875 120.165,215.99099999999999 120.165,215.99099999999999 104.869,224.529 88.351,230.36 71.08600000000001,233.319 53.568999999999996,233.319 36.303,230.36 19.785,224.529 4.489,215.99099999999999 4.489,215.99099999999999 11.32,205.875" stroke="black" stroke-width="0.5" /><polygon fill="none" points="7.12200000000001,275.026 10.109000000000009,274.689 12.94700000000001,273.696 15.49200000000001,272.097 17.61800000000001,269.971 19.21700000000001,267.426 20.210000000000008,264.588 20.546000000000006,261.601 20.546000000000006,261.601 20.210000000000008,258.61400000000003 19.217000000000006,255.776 17.618000000000006,253.231 15.492000000000006,251.10500000000002 12.947000000000006,249.50600000000003 10.109000000000005,248.513 7.122000000000004,248.17700000000002 7.122000000000004,248.17700000000002 7.122,223.616 7.122,223.616 21.599000000000004,229.013 32.782000000000004,239.673 38.86500000000001,253.876 38.86500000000001,269.326 32.78200000000001,283.529 21.59900000000001,294.189 7.122000000000014,299.586 7.122000000000014,299.586 7.12200000000001,275.026" stroke="black" stroke-width="0.5" /><polygon fill="none" points="46.013,234.83900000000003 48.201,233.936 50.72,233.43 53.568999999999996,233.31900000000002 56.748999999999995,233.60500000000002 60.260999999999996,234.287 64.103,235.365 68.275,236.83900000000003 68.275,236.83900000000003 46.013,236.83900000000003 46.013,236.83900000000003 46.013,234.83900000000003" stroke="black" stroke-width="0.5" /><polygon fill="none" points="90.5,236.05800000000002 87.882,238.293 86.007,241.179 85.02900000000001,244.479 85.02900000000001,247.92200000000003 86.007,251.222 87.882,254.108 90.50000000000001,256.343 90.50000000000001,256.343 89.433,258.035 89.433,258.035 86.379,255.42700000000002 84.19000000000001,252.05900000000003 83.049,248.209 83.049,244.192 84.19000000000001,240.341 86.379,236.97400000000002 89.433,234.366 89.433,234.366 90.5,236.05800000000002" stroke="black" stroke-width="0.5" /><polygon fill="none" points="84.19,284.76 59.308,284.76 59.308,284.76 59.308,255.889 59.308,255.889 62.239,255.114 64.293,253.672 65.629,251.592 66.405,248.90200000000002 66.78,245.62900000000002 66.913,241.802 66.961,237.448 66.961,237.448 73.371,234.9 73.371,234.9 72.348,238.187 72.301,241.62900000000002 73.234,244.942 75.07,247.854 77.657,250.124 80.783,251.565 84.19,252.059 84.19,252.059 84.19,284.76" stroke="black" stroke-width="0.5" /><polygon fill="none" points="129.289,230.688 121.661,244.355 116.45,259.114 113.807,274.541 113.807,290.192 116.45,305.619 121.661,320.378 129.28900000000002,334.045 129.28900000000002,334.045 119.173,340.876 119.173,340.876 110.536,325.403 104.637,308.693 101.644,291.227 101.644,273.506 104.637,256.04 110.536,239.331 119.173,223.857 119.173,223.857 129.289,230.688" stroke="black" stroke-width="0.5" /></svg>