<?xml version="1.0" encoding="utf-8" ?>
<svg baseProfile="full" height="400cm" version="1.1" viewBox="0 0 140 400" width="140cm" xmlns="http://www.w3.org/2000/svg" xmlns:ev="http://www.w3.org/2001/xml-events" xmlns:xlink="http://www.w3.org/1999/xlink"><defs /><polygon fill="none" points="37.455,349.237 40.645,354.31300000000005 45.333,358.052 50.992000000000004,360.03200000000004 56.987,360.03200000000004 62.646,358.052 67.333,354.31300000000005 70.523,349.237 70.523,349.237 107.979,364.752 107.979,364.752 97.563,381.32800000000003 82.257,393.53400000000005 63.778,400.0 44.201,400.0 25.722,393.53400000000005 10.416,381.32800000000003 0.0,364.752 0.0,364.752 37.455,349.237" stroke="black" stroke-width="0.5" /><polygon fill="none" points="93.594,358.794 90.404,353.718 85.71600000000001,349.979 80.05699999999999,347.999 74.062,347.999 68.40299999999999,349.979 63.716,353.718 60.526,358.794 60.526,358.794 23.07,343.279 23.07,343.279 33.486,326.70300000000003 48.791999999999994,314.497 67.27099999999999,308.031 86.84799999999998,308.031 105.327,314.497 120.63299999999998,326.703 131.049,343.279 131.049,343.279 93.594,358.794" stroke="black" stroke-width="0.5" /></svg>