<?xml version="1.0" encoding="utf-8" ?>
<svg baseProfile="full" height="400cm" version="1.1" viewBox="0 0 140 400" width="140cm" xmlns="http://www.w3.org/2000/svg" xmlns:ev="http://www.w3.org/2001/xml-events" xmlns:xlink="http://www.w3.org/1999/xlink"><defs /><polygon fill="none" points="0.0,350.101 27.224,350.101 27.224,350.101 27.224000000000004,379.011 27.224000000000004,379.011 24.077000000000005,379.503 21.774000000000004,380.787 20.153000000000006,382.81600000000003 19.050000000000004,385.543 18.304000000000006,388.923 17.751000000000005,392.908 17.22800000000001,397.452 17.22800000000001,397.452 10.819000000000006,400.0 10.819000000000006,400.0 11.509000000000007,396.906 11.331000000000007,393.74 10.300000000000008,390.743 8.492000000000008,388.13800000000003 6.044000000000008,386.124 3.140000000000004,384.851 3.552713678800501e-15,384.416 3.552713678800501e-15,384.416 0.0,350.101" stroke="black" stroke-width="0.5" /><polygon fill="none" points="21.135,391.841 23.37,394.459 26.256,396.334 29.556,397.312 32.999,397.312 36.29900000000001,396.334 39.185,394.459 41.42,391.841 41.42,391.841 43.112,392.908 43.112,392.908 40.504000000000005,395.962 37.136,398.151 33.286,399.29200000000003 29.269000000000002,399.29200000000003 25.418000000000003,398.151 22.051000000000002,395.962 19.443,392.908 19.443,392.908 21.135,391.841" stroke="black" stroke-width="0.5" /><polygon fill="none" points="55.272,386.923 55.272,388.923 55.272,388.923 33.01,388.923 33.01,388.923 37.182,387.449 41.024,386.37100000000004 44.536,385.689 47.715999999999994,385.403 50.565,385.51300000000003 53.084,386.02000000000004 55.272,386.923" stroke="black" stroke-width="0.5" /><polygon fill="none" points="40.155,364.524 49.922,369.975 60.468999999999994,373.699 71.494,375.588 82.679,375.588 93.70400000000001,373.699 104.251,369.975 114.018,364.524 114.018,364.524 120.849,374.64 120.849,374.64 109.276,381.1 96.77799999999999,385.513 83.714,387.751 70.46000000000001,387.751 57.396,385.513 44.897999999999996,381.1 33.324,374.64 33.324,374.64 40.155,364.524" stroke="black" stroke-width="0.5" /><polygon fill="none" points="32.421,372.452 33.324,374.64 33.83,377.159 33.941,380.008 33.655,383.188 32.973,386.7 31.895,390.542 30.421,394.714 30.421,394.714 30.421,372.452 30.421,372.452 32.421,372.452" stroke="black" stroke-width="0.5" /><polygon fill="none" points="71.494,353.611 72.56099999999999,351.919 72.56099999999999,351.919 75.615,354.527 77.804,357.895 78.94500000000001,361.745 78.94500000000001,365.762 77.804,369.613 75.61500000000001,372.97999999999996 72.561,375.58799999999997 72.561,375.58799999999997 71.494,373.89599999999996 71.494,373.89599999999996 74.11200000000001,371.661 75.98700000000001,368.775 76.965,365.47499999999997 76.965,362.032 75.987,358.73199999999997 74.112,355.846 71.494,353.611" stroke="black" stroke-width="0.5" /><polygon fill="none" points="68.731,351.91900000000004 68.731,327.03700000000003 68.731,327.03700000000003 97.60199999999999,327.03700000000003 97.60199999999999,327.03700000000003 98.377,329.968 99.81899999999999,332.02200000000005 101.899,333.35800000000006 104.589,334.134 107.862,334.509 111.689,334.64200000000005 116.04299999999999,334.69000000000005 116.04299999999999,334.69000000000005 118.591,341.1 118.591,341.1 115.304,340.07700000000006 111.862,340.03000000000003 108.54899999999999,340.963 105.637,342.79900000000004 103.36699999999999,345.386 101.92599999999999,348.51200000000006 101.43199999999999,351.91900000000004 101.43199999999999,351.91900000000004 68.731,351.91900000000004" stroke="black" stroke-width="0.5" /><polygon fill="none" points="49.86,350.101 17.159000000000002,350.101 17.159000000000002,350.101 16.665000000000003,346.694 15.224,343.569 12.954,340.981 10.042,339.145 6.729,338.213 3.2869999999999995,338.259 0.0,339.282 0.0,339.282 2.5479999999999987,332.873 2.5479999999999987,332.873 6.901999999999998,332.824 10.729,332.692 14.001999999999999,332.317 16.692,331.54 18.772000000000002,330.204 20.214000000000002,328.15 20.989,325.219 20.989,325.219 49.85999999999999,325.219 49.85999999999999,325.219 49.86,350.101" stroke="black" stroke-width="0.5" /><polygon fill="none" points="32.003,303.81 41.769999999999996,309.261 52.317,312.985 63.342,314.874 74.527,314.874 85.552,312.985 96.099,309.261 105.866,303.81 105.866,303.81 112.697,313.926 112.697,313.926 101.124,320.386 88.626,324.799 75.562,327.037 62.30800000000001,327.037 49.244,324.799 36.746,320.386 25.172,313.926 25.172,313.926 32.003,303.81" stroke="black" stroke-width="0.5" /><polygon fill="none" points="56.792,272.686 59.357,274.26399999999995 62.04600000000001,275.61899999999997 64.84100000000001,276.741 67.721,277.62199999999996 70.665,278.256 73.652,278.638 76.661,278.76599999999996 76.661,278.76599999999996 79.67,278.638 82.65700000000001,278.256 85.601,277.62199999999996 88.481,276.741 91.275,275.61899999999997 93.965,274.26399999999995 96.53,272.686 96.53,272.686 113.84100000000001,298.322 113.84100000000001,298.322 104.00800000000001,303.81 93.39,307.55899999999997 82.291,309.46099999999996 71.031,309.46099999999996 59.932,307.55899999999997 49.314,303.81 39.481,298.322 39.481,298.322 56.792,272.686" stroke="black" stroke-width="0.5" /><polygon fill="none" points="14.653,248.05100000000002 25.663,254.19600000000003 37.552,258.39300000000003 49.980000000000004,260.523 62.588,260.523 75.015,258.39300000000003 86.905,254.19600000000003 97.915,248.05100000000002 97.915,248.05100000000002 104.74600000000001,258.16700000000003 104.74600000000001,258.16700000000003 91.929,265.321 78.089,270.207 63.623000000000005,272.68600000000004 48.945,272.68600000000004 34.478,270.207 20.638,265.321 7.822,258.16700000000003 7.822,258.16700000000003 14.653,248.05100000000002" stroke="black" stroke-width="0.5" /><polygon fill="none" points="32.003,269.495 32.003,303.81 32.003,303.81 28.863000000000007,304.245 25.959000000000007,305.51800000000003 23.511000000000006,307.53200000000004 21.703000000000007,310.137 20.672000000000008,313.134 20.494000000000007,316.3 21.184000000000008,319.394 21.184000000000008,319.394 14.775000000000006,316.846 14.775000000000006,316.846 14.252000000000006,312.302 13.699000000000005,308.317 12.952000000000005,304.937 11.850000000000005,302.21000000000004 10.228000000000002,300.181 7.926000000000002,298.897 4.7790000000000035,298.40500000000003 4.7790000000000035,298.40500000000003 4.779,269.495 4.779,269.495 32.003,269.495" stroke="black" stroke-width="0.5" /><polygon fill="none" points="15.499000000000002,230.781 26.509,236.92600000000002 38.398,241.12300000000002 50.826,243.25300000000001 63.434,243.25300000000001 75.861,241.12300000000002 87.751,236.92600000000002 98.76100000000001,230.781 98.76100000000001,230.781 105.59200000000001,240.897 105.59200000000001,240.897 92.775,248.05100000000002 78.935,252.937 64.46900000000001,255.416 49.791,255.416 35.324,252.937 21.484,248.05100000000002 8.668000000000001,240.897 8.668000000000001,240.897 15.499000000000002,230.781" stroke="black" stroke-width="0.5" /><polygon fill="none" points="40.288,199.657 42.853,201.235 45.542,202.59 48.337,203.71200000000002 51.217,204.59300000000002 54.161,205.227 57.147999999999996,205.609 60.157,205.73700000000002 60.157,205.73700000000002 63.166,205.609 66.153,205.227 69.097,204.59300000000002 71.977,203.71200000000002 74.771,202.59 77.461,201.235 80.026,199.657 80.026,199.657 97.337,225.293 97.337,225.293 87.504,230.781 76.886,234.53 65.787,236.43200000000002 54.527,236.43200000000002 43.428,234.53 32.81,230.781 22.977,225.293 22.977,225.293 40.288,199.657" stroke="black" stroke-width="0.5" /></svg>