<?xml version="1.0" encoding="utf-8" ?>
<svg baseProfile="full" height="400cm" version="1.1" viewBox="0 0 140 400" width="140cm" xmlns="http://www.w3.org/2000/svg" xmlns:ev="http://www.w3.org/2001/xml-events" xmlns:xlink="http://www.w3.org/1999/xlink"><defs /><polygon fill="none" points="22.262,398.0 22.262,400.0 22.262,400.0 0.0,400.0 0.0,400.0 4.172000000000001,398.526 8.014,397.44800000000004 11.526,396.766 14.706,396.48 17.555,396.59000000000003 20.074,397.09700000000004 22.262,398.0" stroke="black" stroke-width="0.5" /><polygon fill="none" points="11.52600000000002,389.935 19.154000000000018,376.26800000000003 24.365000000000013,361.509 27.00800000000001,346.082 27.00800000000001,330.43100000000004 24.365000000000006,315.004 19.154000000000003,300.245 11.526,286.57800000000003 11.526,286.57800000000003 21.641999999999996,279.747 21.641999999999996,279.747 30.279000000000003,295.22 36.17800000000001,311.93 39.17100000000001,329.396 39.17100000000001,347.117 36.17800000000001,364.583 30.279000000000018,381.29200000000003 21.642000000000017,396.766 21.642000000000017,396.766 11.52600000000002,389.935" stroke="black" stroke-width="0.5" /><polygon fill="none" points="31.346,274.935 32.413,273.243 32.413,273.243 35.467,275.851 37.656,279.219 38.797000000000004,283.069 38.797000000000004,287.086 37.656000000000006,290.937 35.467000000000006,294.304 32.413000000000004,296.912 32.413000000000004,296.912 31.346000000000004,295.21999999999997 31.346000000000004,295.21999999999997 33.964000000000006,292.985 35.839000000000006,290.099 36.817,286.799 36.817,283.356 35.839,280.056 33.964,277.17 31.346,274.935" stroke="black" stroke-width="0.5" /><polygon fill="none" points="35.461000000000006,295.21999999999997 38.079,292.985 39.954,290.099 40.932,286.799 40.932,283.356 39.954,280.056 38.079,277.17 35.461,274.935 35.461,274.935 36.528,273.243 36.528,273.243 39.582,275.851 41.771,279.219 42.912,283.069 42.912,287.086 41.771,290.937 39.582,294.304 36.528000000000006,296.912 36.528000000000006,296.912 35.461000000000006,295.21999999999997" stroke="black" stroke-width="0.5" /><polygon fill="none" points="40.24300000000002,367.744 47.77200000000002,354.255 52.91500000000001,339.687 55.524000000000015,324.461 55.52400000000001,309.01300000000003 52.915000000000006,293.786 47.772000000000006,279.219 40.243,265.73 40.243,265.73 50.359,258.899 50.359,258.899 58.897000000000006,274.195 64.72800000000001,290.713 67.68700000000001,307.978 67.68700000000001,325.495 64.72800000000001,342.76099999999997 58.89700000000002,359.279 50.35900000000002,374.575 50.35900000000002,374.575 40.24300000000002,367.744" stroke="black" stroke-width="0.5" /><polygon fill="none" points="64.28800000000001,367.744 71.81700000000001,354.255 76.96000000000001,339.687 79.569,324.461 79.569,309.01300000000003 76.96000000000001,293.786 71.817,279.219 64.288,265.73 64.288,265.73 74.404,258.899 74.404,258.899 82.94200000000001,274.195 88.773,290.713 91.732,307.978 91.732,325.495 88.77300000000001,342.76099999999997 82.94200000000001,359.279 74.40400000000001,374.575 74.40400000000001,374.575 64.28800000000001,367.744" stroke="black" stroke-width="0.5" /><polygon fill="none" points="38.870000000000005,232.39600000000002 38.870000000000005,266.711 38.870000000000005,266.711 35.730000000000004,267.146 32.82600000000001,268.41900000000004 30.378000000000007,270.433 28.570000000000007,273.038 27.53900000000001,276.035 27.361000000000008,279.201 28.05100000000001,282.295 28.05100000000001,282.295 21.642000000000007,279.747 21.642000000000007,279.747 21.119000000000007,275.20300000000003 20.566000000000006,271.218 19.819000000000006,267.838 18.717000000000006,265.111 17.095000000000002,263.082 14.793000000000003,261.798 11.646000000000004,261.30600000000004 11.646000000000004,261.30600000000004 11.646,232.39600000000002 11.646,232.39600000000002 38.870000000000005,232.39600000000002" stroke="black" stroke-width="0.5" /><polygon fill="none" points="61.707,213.717 62.044,216.704 63.037,219.542 64.636,222.08700000000002 66.762,224.21300000000002 69.307,225.812 72.145,226.805 75.132,227.14100000000002 75.132,227.14100000000002 78.119,226.805 80.957,225.812 83.50200000000001,224.21300000000002 85.628,222.08700000000002 87.227,219.542 88.22,216.704 88.556,213.717 88.556,213.717 113.11699999999999,213.717 113.11699999999999,213.717 111.394,232.39600000000002 101.036,248.036 84.511,256.913 65.753,256.913 49.227,248.036 38.87,232.39600000000002 37.147,213.717 37.147,213.717 61.707,213.717" stroke="black" stroke-width="0.5" /><polygon fill="none" points="78.731,375.118 78.731,400.0 78.731,400.0 49.86000000000001,400.0 49.86000000000001,400.0 49.08500000000001,397.069 47.64300000000001,395.015 45.563,393.67900000000003 42.873000000000005,392.903 39.6,392.528 35.773,392.395 31.419000000000004,392.347 31.419000000000004,392.347 28.871000000000002,385.937 28.871000000000002,385.937 32.158,386.96 35.6,387.007 38.913000000000004,386.074 41.825,384.238 44.095,381.651 45.536,378.525 46.03,375.118 46.03,375.118 78.731,375.118" stroke="black" stroke-width="0.5" /><polygon fill="none" points="90.93200000000002,330.16100000000006 93.91900000000001,329.824 96.757,328.831 99.302,327.232 101.42800000000001,325.106 103.02700000000002,322.56100000000004 104.02000000000001,319.723 104.35600000000001,316.73600000000005 104.35600000000001,316.73600000000005 104.02000000000001,313.749 103.02700000000002,310.91100000000006 101.42800000000001,308.36600000000004 99.302,306.24 96.757,304.641 93.91900000000001,303.648 90.932,303.312 90.932,303.312 90.932,278.75100000000003 90.932,278.75100000000003 105.409,284.148 116.59200000000001,294.808 122.67500000000001,309.011 122.67500000000001,324.461 116.59200000000001,338.66400000000004 105.40900000000002,349.324 90.93200000000002,354.721 90.93200000000002,354.721 90.93200000000002,330.16100000000006" stroke="black" stroke-width="0.5" /><polygon fill="none" points="40.601000000000006,314.118 39.698,311.93 39.192,309.411 39.081,306.562 39.367000000000004,303.382 40.049,299.87 41.127,296.028 42.601,291.856 42.601,291.856 42.601000000000006,314.118 42.601000000000006,314.118 40.601000000000006,314.118" stroke="black" stroke-width="0.5" /><polygon fill="none" points="130.077,370.473 130.077,397.697 130.077,397.697 101.167,397.697 101.167,397.697 100.675,394.55 99.391,392.247 97.362,390.62600000000003 94.635,389.523 91.255,388.77700000000004 87.27,388.22400000000005 82.726,387.701 82.726,387.701 80.178,381.29200000000003 80.178,381.29200000000003 83.27199999999999,381.982 86.438,381.80400000000003 89.435,380.773 92.03999999999999,378.96500000000003 94.054,376.517 95.327,373.613 95.762,370.473 95.762,370.473 130.077,370.473" stroke="black" stroke-width="0.5" /><polygon fill="none" points="111.15200000000002,351.39300000000003 118.78000000000002,337.726 123.99100000000001,322.967 126.63400000000001,307.54 126.63400000000001,291.889 123.99100000000001,276.462 118.78,261.70300000000003 111.152,248.036 111.152,248.036 121.268,241.205 121.268,241.205 129.905,256.678 135.804,273.38800000000003 138.79700000000003,290.85400000000004 138.79700000000003,308.57500000000005 135.80400000000003,326.041 129.90500000000003,342.75 121.26800000000001,358.22400000000005 121.26800000000001,358.22400000000005 111.15200000000002,351.39300000000003" stroke="black" stroke-width="0.5" /><polygon fill="none" points="25.547,321.906 25.547000000000004,354.607 25.547000000000004,354.607 22.140000000000004,355.101 19.015000000000008,356.54200000000003 16.427000000000007,358.812 14.591000000000008,361.724 13.65900000000001,365.03700000000003 13.705000000000009,368.479 14.728000000000009,371.766 14.728000000000009,371.766 8.319000000000006,369.218 8.319000000000006,369.218 8.270000000000007,364.86400000000003 8.138000000000009,361.03700000000003 7.76300000000001,357.764 6.986000000000005,355.074 5.650000000000003,352.994 3.5960000000000045,351.552 0.6650000000000036,350.777 0.6650000000000036,350.777 0.665,321.906 0.665,321.906 25.547,321.906" stroke="black" stroke-width="0.5" /></svg>