<?xml version="1.0" encoding="utf-8" ?>
<svg baseProfile="full" height="400cm" version="1.1" viewBox="0 0 140 400" width="140cm" xmlns="http://www.w3.org/2000/svg" xmlns:ev="http://www.w3.org/2001/xml-events" xmlns:xlink="http://www.w3.org/1999/xlink"><defs /><polygon fill="none" points="0.0,378.023 1.0669999999999995,376.331 1.0669999999999995,376.331 4.121000000000001,378.939 6.310000000000001,382.307 7.451000000000002,386.15700000000004 7.451000000000003,390.17400000000004 6.310000000000004,394.02500000000003 4.121000000000004,397.392 1.067000000000004,400.0 1.067000000000004,400.0 3.726294048105609e-15,398.308 3.726294048105609e-15,398.308 2.618000000000003,396.07300000000004 4.493000000000004,393.187 5.471000000000003,389.887 5.471000000000002,386.444 4.493000000000002,383.144 2.6180000000000003,380.25800000000004 0.0,378.023" stroke="black" stroke-width="0.5" /><polygon fill="none" points="1.8986372882920946e-14,371.192 7.628000000000017,357.52500000000003 12.839000000000013,342.766 15.482000000000012,327.33900000000006 15.482000000000008,311.688 12.839000000000006,296.261 7.628000000000003,281.502 0.0,267.83500000000004 0.0,267.83500000000004 10.115999999999998,261.004 10.115999999999998,261.004 18.753000000000004,276.47700000000003 24.652000000000008,293.187 27.64500000000001,310.653 27.64500000000001,328.374 24.652000000000015,345.84000000000003 18.753000000000018,362.54900000000004 10.11600000000002,378.023 10.11600000000002,378.023 1.8986372882920946e-14,371.192" stroke="black" stroke-width="0.5" /><polygon fill="none" points="21.176,360.361 23.176,360.361 23.176,360.361 23.176,382.623 23.176,382.623 21.701999999999998,378.45099999999996 20.624,374.609 19.942,371.097 19.656,367.917 19.766,365.068 20.273,362.549 21.176,360.361" stroke="black" stroke-width="0.5" /><polygon fill="none" points="11.183000000000003,398.308 13.801000000000002,396.07300000000004 15.676000000000004,393.187 16.654000000000003,389.887 16.654000000000003,386.444 15.676000000000002,383.144 13.801,380.25800000000004 11.183,378.023 11.183,378.023 12.25,376.331 12.25,376.331 15.304000000000002,378.939 17.493000000000002,382.307 18.634,386.15700000000004 18.634000000000004,390.17400000000004 17.493000000000002,394.02500000000003 15.304000000000004,397.392 12.250000000000004,400.0 12.250000000000004,400.0 11.183000000000003,398.308" stroke="black" stroke-width="0.5" /><polygon fill="none" points="23.17600000000002,353.53 30.70500000000002,340.041 35.84800000000001,325.473 38.457000000000015,310.247 38.45700000000001,294.799 35.848000000000006,279.572 30.705000000000005,265.005 23.176000000000002,251.51600000000002 23.176000000000002,251.51600000000002 33.292,244.685 33.292,244.685 41.830000000000005,259.981 47.66100000000001,276.499 50.62000000000001,293.764 50.62000000000001,311.281 47.661000000000016,328.547 41.83000000000002,345.065 33.29200000000002,360.361 33.29200000000002,360.361 23.17600000000002,353.53" stroke="black" stroke-width="0.5" /><polygon fill="none" points="47.221000000000025,353.53 54.75000000000002,340.041 59.893000000000015,325.473 62.50200000000002,310.247 62.50200000000001,294.799 59.89300000000001,279.572 54.75000000000001,265.005 47.221000000000004,251.51600000000002 47.221000000000004,251.51600000000002 57.337,244.685 57.337,244.685 65.875,259.981 71.70600000000002,276.499 74.66500000000002,293.764 74.66500000000002,311.281 71.70600000000002,328.547 65.87500000000003,345.065 57.337000000000025,360.361 57.337000000000025,360.361 47.221000000000025,353.53" stroke="black" stroke-width="0.5" /><polygon fill="none" points="27.344,213.653 27.344000000000005,247.968 27.344000000000005,247.968 24.204000000000008,248.403 21.300000000000008,249.676 18.852000000000007,251.69 17.044000000000008,254.295 16.01300000000001,257.292 15.835000000000006,260.45799999999997 16.52500000000001,263.552 16.52500000000001,263.552 10.116000000000005,261.004 10.116000000000005,261.004 9.593000000000005,256.46 9.040000000000004,252.475 8.293000000000005,249.095 7.191000000000005,246.368 5.569000000000002,244.339 3.267000000000002,243.055 0.12000000000000355,242.563 0.12000000000000355,242.563 0.12,213.653 0.12,213.653 27.344,213.653" stroke="black" stroke-width="0.5" /><polygon fill="none" points="53.291000000000004,201.489 53.628,204.476 54.621,207.314 56.22,209.859 58.346000000000004,211.985 60.891000000000005,213.584 63.729,214.577 66.71600000000001,214.913 66.71600000000001,214.913 69.703,214.577 72.541,213.584 75.08600000000001,211.985 77.212,209.859 78.811,207.314 79.804,204.476 80.14,201.489 80.14,201.489 104.701,201.489 104.701,201.489 102.97800000000001,220.168 92.62,235.808 76.095,244.685 57.337,244.685 40.811,235.808 30.454,220.168 28.731,201.489 28.731,201.489 53.291000000000004,201.489" stroke="black" stroke-width="0.5" /><polygon fill="none" points="98.23899999999999,359.10200000000003 98.239,383.98400000000004 98.239,383.98400000000004 69.368,383.98400000000004 69.368,383.98400000000004 68.593,381.05300000000005 67.15100000000001,378.999 65.071,377.66300000000007 62.381,376.88700000000006 59.108,376.51200000000006 55.281,376.379 50.927,376.331 50.927,376.331 48.379,369.92100000000005 48.379,369.92100000000005 51.666,370.944 55.108,370.99100000000004 58.421,370.05800000000005 61.333,368.22200000000004 63.602999999999994,365.63500000000005 65.044,362.509 65.538,359.10200000000003 65.538,359.10200000000003 98.23899999999999,359.10200000000003" stroke="black" stroke-width="0.5" /><polygon fill="none" points="73.86500000000001,315.947 76.852,315.60999999999996 79.69,314.61699999999996 82.235,313.018 84.361,310.89199999999994 85.96000000000001,308.347 86.953,305.50899999999996 87.289,302.522 87.289,302.522 86.953,299.53499999999997 85.96000000000001,296.697 84.361,294.152 82.235,292.02599999999995 79.69,290.42699999999996 76.852,289.43399999999997 73.865,289.09799999999996 73.865,289.09799999999996 73.865,264.537 73.865,264.537 88.342,269.93399999999997 99.525,280.59399999999994 105.608,294.79699999999997 105.608,310.24699999999996 99.525,324.45 88.34200000000001,335.10999999999996 73.86500000000001,340.50699999999995 73.86500000000001,340.50699999999995 73.86500000000001,315.947" stroke="black" stroke-width="0.5" /><polygon fill="none" points="32.574000000000005,315.36 31.671000000000003,313.172 31.165000000000003,310.653 31.054000000000002,307.80400000000003 31.340000000000003,304.624 32.022,301.112 33.1,297.27000000000004 34.574,293.098 34.574,293.098 34.574000000000005,315.36 34.574000000000005,315.36 32.574000000000005,315.36" stroke="black" stroke-width="0.5" /><polygon fill="none" points="118.65,240.871 118.65,268.095 118.65,268.095 89.74000000000001,268.095 89.74000000000001,268.095 89.248,264.94800000000004 87.96400000000001,262.64500000000004 85.935,261.024 83.20800000000001,259.92100000000005 79.828,259.175 75.843,258.622 71.299,258.09900000000005 71.299,258.09900000000005 68.751,251.69000000000003 68.751,251.69000000000003 71.845,252.38000000000002 75.01100000000001,252.20200000000003 78.00800000000001,251.17100000000002 80.613,249.36300000000003 82.62700000000001,246.91500000000002 83.9,244.01100000000002 84.33500000000001,240.871 84.33500000000001,240.871 118.65,240.871" stroke="black" stroke-width="0.5" /><polygon fill="none" points="108.35500000000002,383.984 115.98300000000002,370.317 121.19400000000002,355.558 123.83700000000002,340.131 123.83700000000002,324.48 121.19400000000002,309.053 115.983,294.294 108.355,280.627 108.355,280.627 118.471,273.796 118.471,273.796 127.108,289.269 133.007,305.979 136.0,323.445 136.0,341.166 133.007,358.632 127.10800000000002,375.341 118.47100000000002,390.815 118.47100000000002,390.815 108.35500000000002,383.984" stroke="black" stroke-width="0.5" /><polygon fill="none" points="136.059,201.74 136.05900000000003,234.441 136.05900000000003,234.441 132.65200000000002,234.935 129.52700000000002,236.376 126.93900000000001,238.64600000000002 125.10300000000001,241.558 124.17100000000002,244.871 124.21700000000001,248.31300000000002 125.24000000000001,251.60000000000002 125.24000000000001,251.60000000000002 118.83100000000002,249.05200000000002 118.83100000000002,249.05200000000002 118.78200000000001,244.698 118.65000000000002,240.871 118.27500000000002,237.598 117.49800000000002,234.90800000000002 116.162,232.828 114.108,231.38600000000002 111.177,230.61100000000002 111.177,230.61100000000002 111.177,201.74 111.177,201.74 136.059,201.74" stroke="black" stroke-width="0.5" /></svg>